<svg width="756" height="1070" viewBox="0 0 756 1070" fill="none" xmlns="http://www.w3.org/2000/svg">
<g clip-path="url(#clip0_10_1128)">
<rect width="755.583" height="1069.54" fill="white"/>
<path d="M659.988 522.157C571.325 526.49 701.847 746.472 373.77 748.832C14.7705 718.607 209.088 529.423 87.5527 522.157C87.5527 396.968 225.523 254.031 373.77 295.483C502.976 258.338 659.988 379.575 659.988 522.157Z" fill="#1E1E1E"/>
<path d="M286.866 430.736C289.212 430.576 288.501 428.347 290.448 427.176C294.803 424.556 298.399 420.54 302.598 417.594C353.841 381.639 352.513 322.466 407.931 345.597C422.125 351.522 390.876 386.526 404.888 392.837C418.065 398.709 429.803 417.438 443.533 435.086C452.542 446.666 458.075 461.61 465.021 465.902C464.631 448.999 457.049 426.541 446.437 413.938C466.792 415.696 479.138 419.716 492.97 435.93C507.634 453.118 509.943 471.764 506.255 493.344C513.958 480.921 514.6 462.75 511.446 448.785C509.208 438.875 504.194 429.839 499.292 421.034C518.786 427.09 535.871 439.581 548.215 455.559C551.537 459.859 555.337 463.674 557.712 468.648C566.697 487.463 531.591 510.9 570.333 464.727C594.485 490.083 556.529 444.842 555.13 480.621C553.847 513.435 556.858 610.79 556.858 658.565C556.858 687.868 551.713 647.697 604.96 634.672C627.078 635.3 640.583 653.705 639.71 674.749C639.114 689.102 633.085 701.439 622.582 711.178C610.119 722.642 593.672 728.79 576.743 728.312C570.827 728.087 566.121 727.111 560.512 725.377C555.521 734.827 550.011 744.301 543.196 752.564C510.051 792.747 459.577 820.113 407.915 826.045C393.463 827.384 380.633 828.302 366.087 827.532C356.479 827.024 346.841 825.442 337.439 824.938C289.913 821.612 236.467 792.568 204.928 757.464C196.85 748.474 190.051 737.567 184.554 726.821C170.447 729.362 160.625 729.325 147.019 724.181C131.82 718.36 119.93 708.936 113.271 693.905C103.101 670.945 107.488 646.945 132.046 635.88C135.774 634.891 143.251 632.992 143.251 632.992L175.51 673.941C175.51 673.941 181.172 484.64 181.734 465.639C182.381 448.66 189.788 432.643 202.309 421.152C207.88 415.945 212.839 412.829 219.354 409.014C207.118 425.337 200.036 437.024 202.948 458.768C203.722 464.554 205.561 470.474 208.393 475.626C208.071 471.536 207.22 463.567 207.524 459.755C208.305 449.964 214.44 439.361 220.507 431.953C230.621 419.604 251.991 409.678 267.747 408.5C268.623 408.436 269.499 408.389 270.376 408.361C251.233 417.772 231.446 434.725 224.321 455.509C223.134 458.972 221.511 472.507 225.459 474.053C229.357 472.136 234.695 460.909 237.543 456.972C266.91 416.372 244.732 360.938 292.772 348.319C298.317 346.816 303.952 345.665 309.642 344.874C316.168 344.026 327.911 346.685 327.911 346.685C327.911 346.685 317.026 348.678 310.781 351.798C282.516 365.916 318.034 414.606 293.655 430.866C289.357 433.682 285.233 436.753 281.304 440.062C281.314 436.539 286.61 434.166 286.866 430.736Z" fill="#FCBC8B"/>
<path d="M143.251 632.993C148.33 640.209 155.701 647.793 159.99 654.412L159.773 654.419C153.733 654.657 147.497 641.924 136.121 649.915C132.891 644.228 132.839 642.252 132.046 635.88C135.774 634.891 139.509 633.928 143.251 632.993Z" fill="#E8916D"/>
<path d="M136.12 649.915C147.496 641.924 153.732 654.657 159.773 654.419L159.989 654.412C161.663 656.578 164.4 660.848 166.226 662.372L166.785 662.379L167.038 661.199C167.486 662.835 167.138 662.468 167.17 663.297C167.469 670.943 170.741 685.499 172.803 692.552C173.846 696.723 176.288 701.288 177.353 705.529C177.721 706.995 177.519 706.919 176.802 707.964C174.198 709.321 172.397 709.171 169.545 709.179C149.919 709.235 132.885 697.236 129.875 677.093C129.058 671.63 129.176 667.481 129.332 661.926C132.932 657.514 133.191 653.704 136.12 649.915Z" fill="#E8916D"/>
<path d="M136.12 649.915C147.496 641.924 153.733 654.657 159.773 654.419L159.989 654.412C161.663 656.578 164.401 660.848 166.226 662.372L166.785 662.379L167.039 661.199C167.487 662.835 167.138 662.468 167.17 663.297C167.469 670.943 170.742 685.499 172.803 692.552L172.362 693.457L171.361 693.688C164.331 692.309 154.593 675.913 149.913 670.303C143.477 662.587 138.755 662.85 129.333 661.926C132.933 657.514 133.192 653.704 136.12 649.915Z" fill="#FFC9A0"/>
<path d="M428.333 709.169C431.112 706.616 436.362 701.226 439.477 706.284C450.765 724.613 433.609 741.517 422.44 752.154C409.782 764.466 391.617 771.926 373.864 771.933C366.215 771.936 346.801 767.489 341.9 762.517C328.454 755.717 316.427 741.973 309.692 728.625C307.646 724.569 304.474 716.34 305.353 711.982C307.97 708.72 320.657 711.719 325.059 711.574C328.713 711.454 339.388 710.684 342.001 712.571C345.899 710.501 397.425 712.421 405.594 711.267C407.571 710.988 427.041 708.736 428.333 709.169Z" fill="#682C2A"/>
<path d="M381.144 742.292C393.749 729.119 414.232 738.285 422.439 752.154C409.782 764.466 391.617 771.926 373.864 771.933C366.215 771.936 346.801 767.489 341.9 762.517C341.901 760.965 339.707 759.136 339.808 757.239C340.017 754.133 342.186 750.52 344.407 748.415C352.047 741.175 364.587 735.427 375.164 738.268C377.722 738.955 379.336 740.51 381.144 742.292Z" fill="#ED6D62"/>
<path d="M342.001 712.571C345.899 710.501 397.425 712.421 405.594 711.267C407.57 710.987 427.041 708.736 428.333 709.169C425.075 712.421 420.588 716.633 416.176 718.229C404.718 722.377 387.571 720.773 375.176 721.364C364.838 721.858 349.823 719.532 342.001 712.571Z" fill="#FEFEFE"/>
<path d="M231.882 674.473C240.11 674.115 245.749 674.847 253.367 678.517C264.846 683.84 273.575 698.908 267.384 711.078C263.857 718.012 256.539 721.079 249.535 723.179C211.062 727.141 196.552 683.543 231.882 674.473Z" fill="#FFCAA1"/>
<path d="M513.226 674.061C548.473 670.959 548.132 720.331 510.794 722.836C498.864 721.172 485.573 715.189 483.275 702.013C482.37 696.95 483.553 691.736 486.553 687.558C492.77 678.777 503.201 675.677 513.226 674.061Z" fill="#FFCAA1"/>
<path d="M572.137 691.78C575.874 678.556 579.826 663.821 591.408 655.05C594.478 652.726 600.134 649.91 603.773 647.777C604.066 646.793 604.132 646.164 604.901 645.496C606.605 651.23 613.336 647.845 617.043 664.047C618.284 674.625 618.873 683.575 611.661 692.521C603.058 703.195 594.944 707.168 581.338 708.394C561.008 710.226 567.872 706.191 572.137 691.78Z" fill="#E8916D"/>
<path d="M572.138 691.78C575.875 678.556 579.827 663.821 591.409 655.05C594.479 652.726 600.135 649.91 603.774 647.777C604.067 646.793 604.132 646.164 604.902 645.496C606.606 651.23 613.337 647.845 617.043 664.047C612.991 665.557 608.888 666.97 605.427 669.652C598.336 675.146 583.623 698.262 573.204 695.071C571.974 693.772 572.347 693.957 572.138 691.78Z" fill="#FFC9A0"/>
<path d="M381.784 667.957C385.201 667.584 390.499 667.402 392.323 670.881C393.095 676.719 384.671 678.02 380.601 678.564C376.643 678.657 370.577 677.936 369.524 673.458C370.712 668.339 377.626 668.227 381.784 667.957Z" fill="#E8916D"/>
<path d="M337.439 824.938C346.841 825.442 356.48 827.024 366.088 827.532C380.634 828.301 393.463 827.384 407.915 826.045L406.921 831.634C412.627 832.255 416.617 833.495 421.538 834.152C461.173 844.125 482.189 860.945 503.093 895.91C505.877 900.568 521.632 930.269 521.118 932.663C521.089 932.799 521.044 932.932 521.006 933.066L519.685 933.7C517.022 935.156 506.028 937.336 502.306 938.126C490.185 940.959 475.19 952.063 462.268 956.553C464.134 960.621 467.134 980.969 468.995 987.378C470.957 995.232 472.833 1003.1 474.621 1011L475.268 1025.7L475.312 1037.34C480.501 1036.77 483.864 1036.73 489.092 1036.81C492.967 1036.72 495.925 1036.61 499.769 1036.17C508.812 1035.85 515.992 1035.19 525.589 1035.1C530.394 1035.19 536.368 1035.15 541.024 1035.85L547.162 1036.47C550.829 1042.91 556.199 1054.61 565.476 1048.99C568.154 1047.37 568.832 1046.27 569.281 1043.05L570.842 1042.73C576.773 1052.02 583.83 1063.21 596.032 1064.02L597.751 1064.41L597.963 1064.89C598.905 1067 602.339 1071.6 602.679 1072.87C620.756 1139.99 536.172 1169.97 486.023 1182.88C484.665 1183.23 483.895 1184.36 483.299 1185.51C481.468 1195 478.049 1197.41 469.014 1199.66C469.709 1206.33 470.536 1210.75 465.462 1216.01C460.327 1221.34 455.679 1228.52 447.622 1223.88C430.54 1214.02 415.855 1204.76 397.391 1197.23C387.22 1192.88 381.067 1189.21 371.859 1183.17C356.659 1193.41 339.572 1198.93 323.471 1207.37C316.019 1211.28 308.751 1215.58 301.721 1220.4C298.375 1222.69 292.886 1225.81 288.321 1225.05C284.551 1223.76 277.143 1217.1 274.807 1213.63C272.099 1209.19 272.925 1203.54 272.58 1198.75C265.876 1195.79 259.487 1194.35 259.602 1185.47C256.628 1180.75 238.375 1177.65 231.991 1175.54C197.17 1164.02 154.036 1146.54 139.89 1109.58C133.914 1093.98 137.065 1078.89 144.331 1064.45L146.353 1063.67C156.107 1064.47 166.031 1049.79 170.999 1042.71L172.441 1043.69C172.927 1045.3 173.84 1046.74 175.082 1047.86C176.685 1049.31 180.592 1050.44 182.5 1049.99C193.975 1047.31 186.865 1036.12 201.384 1035.73C206.368 1035 215.593 1035.24 220.925 1035.25C228.607 1036.28 236.031 1035.54 242.97 1036.62C244.935 1035.17 245.621 1034.72 247.81 1033.67C248.826 1035.21 249.382 1036.62 251.382 1036.79C255.084 1036.63 261.226 1036.24 264.756 1037.2C265.088 1033.76 265.208 1029.46 265.413 1025.94L265.46 1017.22C266.032 1011.39 270.747 993.816 272.366 987.368C275.668 977.584 277.714 967.42 278.453 957.12C275.436 954.772 245.202 940.007 240.281 938.689C238.499 938.545 224.84 935.091 220.733 934.417C223.021 929.898 225.34 925.394 227.687 920.905C231.717 912.675 239.849 897.193 244.649 889.421C261.972 861.646 289.532 841.804 321.373 834.184C326.846 833.122 332.328 832.111 337.82 831.151L337.439 824.938Z" fill="#08535D"/>
<g filter="url(#filter0_d_10_1128)">
<path d="M337.439 824.938C346.841 825.442 356.48 827.024 366.088 827.532C380.634 828.301 393.463 827.384 407.915 826.045L406.921 831.634C412.627 832.255 416.617 833.495 421.538 834.152C461.173 844.125 482.189 860.945 503.093 895.91C505.877 900.568 521.632 930.269 521.118 932.663C521.089 932.799 521.044 932.932 521.006 933.066L519.685 933.7C517.022 935.156 506.028 937.336 502.306 938.126C490.185 940.96 475.19 952.063 462.268 956.553C460.077 957.229 458.527 957.319 456.242 957.554C455.845 955.883 455.54 953.974 455.231 952.267C441.981 953.785 425.304 953.089 411.693 953.248C390.45 953.621 369.203 953.688 347.958 953.45C329.229 953.195 307.615 952.375 289.081 952.547C288.506 961.78 284.969 960.32 278.453 957.12C275.436 954.772 245.202 940.007 240.281 938.689C238.499 938.545 224.84 935.091 220.733 934.417C223.021 929.898 225.34 925.394 227.687 920.906C231.717 912.675 239.849 897.193 244.65 889.421C261.972 861.646 289.532 841.804 321.373 834.184C326.846 833.122 332.328 832.111 337.82 831.151L337.439 824.938Z" fill="white"/>
</g>
<path d="M300.365 915.002C330.384 915.566 360.409 915.777 390.434 915.635C405.425 915.614 424.046 916.083 438.652 915.434L450.62 915.515C453.524 927.711 454.272 939.813 455.23 952.268C441.981 953.786 425.304 953.09 411.692 953.248C390.45 953.621 369.203 953.689 347.958 953.45C329.229 953.195 307.615 952.376 289.081 952.547C289.831 945.422 290.249 923.468 293.652 916.155C294.183 915.013 298.688 915.04 300.365 915.002Z" fill="white"/>
<path d="M337.439 824.938C346.841 825.442 356.479 827.024 366.087 827.532C380.633 828.301 393.463 827.384 407.915 826.045L406.921 831.634C412.627 832.255 416.617 833.495 421.537 834.152C420.35 841.329 417.858 853.06 412.858 858.412C385.646 887.535 325.811 878.48 321.372 834.184C326.845 833.122 332.328 832.111 337.82 831.151L337.439 824.938Z" fill="#E3E3E3"/>
<path d="M337.439 824.938C346.841 825.442 356.48 827.024 366.087 827.532C380.634 828.301 393.463 827.384 407.915 826.045L406.921 831.634C405.163 835.588 404.256 842.913 402.07 846.025C389.57 863.831 354.236 865.381 342.377 845.894C339.505 841.175 338.836 836.497 337.82 831.151L337.439 824.938Z" fill="url(#paint0_linear_10_1128)"/>
<path d="M295.631 885.622C294.238 894.659 293.549 905.536 296.693 914.24C297.821 915.033 298.807 914.857 300.365 915.002C298.688 915.04 294.184 915.012 293.652 916.155C290.249 923.468 289.831 945.421 289.081 952.547C288.506 961.78 284.969 960.321 278.453 957.121C275.436 954.772 245.202 940.008 240.281 938.689C238.499 938.545 224.84 935.092 220.733 934.417C223.021 929.899 225.34 925.394 227.687 920.906C230.219 923.386 269.996 941.51 275.1 943.876C280.552 926.156 286.56 901.698 295.631 885.622Z" fill="#E3E3E3"/>
<path d="M447.653 915.13C450.091 904.78 449.662 895.566 447.217 885.202C456.855 901.22 462.113 927.694 468.678 945.506C477.294 942.689 511.078 932.221 518.686 933.002L519.684 933.701C517.021 935.156 506.027 937.336 502.306 938.126C490.184 940.96 475.189 952.063 462.268 956.553C460.076 957.229 458.526 957.32 456.241 957.554C455.844 955.884 455.539 953.975 455.23 952.268C454.271 939.813 453.523 927.711 450.619 915.515L438.651 915.434C441.874 915.073 444.426 915.117 447.653 915.13Z" fill="#E3E3E3"/>
<path d="M172.441 1043.69C172.927 1045.3 173.84 1046.74 175.082 1047.86C176.685 1049.31 180.592 1050.44 182.5 1049.99C193.975 1047.31 186.865 1036.12 201.384 1035.73C204.678 1037.36 212.668 1038.81 216.522 1039.77C222.673 1041.32 228.744 1043.18 234.713 1045.33C266.581 1057.15 292.23 1078.21 320.533 1096.27C322.089 1097.26 322.861 1097.68 324.122 1099.09C305.914 1112.6 295.578 1127.71 283.797 1146.37C278.244 1146.3 274.665 1146.11 269.201 1147.42C255.925 1150.62 245.866 1159.04 256.904 1171.93C257.924 1173.12 259.727 1175.23 260.695 1176.54L259.602 1185.47C256.628 1180.75 238.375 1177.65 231.991 1175.54C197.17 1164.02 154.036 1146.54 139.89 1109.58C133.914 1093.98 137.065 1078.89 144.331 1064.45L146.353 1063.67C156.107 1064.47 166.031 1049.79 170.999 1042.71L172.441 1043.69Z" fill="#0498AD"/>
<path d="M541.024 1035.86L547.162 1036.47C550.829 1042.91 556.199 1054.62 565.476 1048.99C568.154 1047.37 568.832 1046.27 569.281 1043.05L570.842 1042.74C576.773 1052.02 583.83 1063.21 596.032 1064.02L597.751 1064.41L597.962 1064.89C598.905 1067 602.339 1071.6 602.679 1072.87C620.756 1139.99 536.172 1169.97 486.023 1182.88C484.665 1183.23 483.894 1184.36 483.299 1185.51C482.639 1182.8 482.012 1180.08 481.416 1177.35C484.633 1173.5 490.499 1167.33 490.192 1162.22C489.355 1148.27 468.683 1146.62 458.845 1146.63C457.257 1143.55 453.227 1135.57 451.324 1132.92C443.776 1122.4 429.653 1105.35 419.021 1098.8C419.968 1095.96 426.272 1093.25 429.349 1091.03C454.382 1072.98 480.053 1055.88 509.045 1044.82C513.084 1043.27 517.204 1041.95 521.386 1040.84C525.768 1039.73 538.215 1037.56 541.024 1035.86Z" fill="#0498AD"/>
<g filter="url(#filter1_d_10_1128)">
<path d="M455.23 952.268C455.54 953.975 455.844 955.884 456.242 957.554C458.526 957.32 460.077 957.23 462.268 956.553C464.133 960.622 467.133 980.97 468.994 987.378C470.956 995.232 472.832 1003.1 474.621 1011L475.267 1025.71L265.413 1025.94L265.46 1017.22C266.031 1011.39 270.747 993.816 272.365 987.369C275.668 977.585 277.713 967.421 278.453 957.121C284.968 960.321 288.505 961.78 289.081 952.547C307.615 952.376 329.228 953.196 347.958 953.45C369.202 953.689 390.449 953.622 411.692 953.248C425.304 953.09 441.98 953.786 455.23 952.268Z" fill="white"/>
</g>
<path d="M455.23 952.268C455.539 953.975 455.844 955.884 456.241 957.554C458.526 957.32 460.076 957.23 462.268 956.553C464.133 960.622 467.133 980.97 468.994 987.378C419.405 986.458 369.4 988.134 319.768 987.42C304.092 987.195 288.018 987.013 272.365 987.369C275.668 977.585 277.713 967.421 278.452 957.121C284.968 960.321 288.505 961.78 289.08 952.547C307.614 952.376 329.228 953.196 347.957 953.45C369.202 953.689 390.449 953.622 411.692 953.248C425.303 953.09 441.98 953.786 455.23 952.268Z" fill="#DE5D5D"/>
<g filter="url(#filter2_d_10_1128)">
<path d="M265.413 1025.94L475.268 1025.7L475.312 1037.34C468.525 1038.41 456.337 1041.14 450.097 1043.2C434.927 1048.2 419.844 1055.84 404.621 1060.63C380.821 1068.13 351.732 1065.87 328.606 1057C316.124 1052.21 304.287 1046.19 291.356 1042.23C282.516 1039.52 273.767 1039.4 264.756 1037.2C265.088 1033.76 265.209 1029.46 265.413 1025.94Z" fill="white"/>
</g>
<path d="M251.381 1036.79C255.083 1036.63 261.226 1036.24 264.755 1037.2C273.766 1039.4 282.515 1039.52 291.355 1042.23C304.286 1046.19 316.123 1052.21 328.605 1057C351.732 1065.86 380.82 1068.13 404.62 1060.63C419.843 1055.84 434.926 1048.2 450.097 1043.2C456.336 1041.14 468.524 1038.41 475.311 1037.34C480.5 1036.77 483.863 1036.73 489.091 1036.81C488.742 1037.94 484.076 1039.58 482.696 1040.17C453.051 1052.81 425.122 1069.37 397.102 1085.2C389.558 1089.46 381.019 1096.05 374.041 1101.16C354.581 1089.41 334.797 1078.21 314.715 1067.57C302.846 1061.13 291.068 1054.35 278.883 1048.52C275.003 1046.66 252.098 1037.95 251.381 1036.79Z" fill="#0A7685"/>
<path d="M502.306 938.126C503.965 944.26 505.98 950.292 508.342 956.191C514.511 970.386 520.789 980.23 528.988 992.476C539.765 1008.57 549.744 1010.71 567.928 1014.33C579.89 1016.72 629.471 1044.52 611.492 1059.86L608.912 1061.18C606.874 1061.76 604.454 1062.39 602.473 1063.04C601.123 1063.45 599.062 1064.13 597.75 1064.41L596.031 1064.02C583.83 1063.21 576.773 1052.02 570.841 1042.74L569.281 1043.05C568.831 1046.27 568.153 1047.37 565.475 1048.99C556.199 1054.61 550.828 1042.91 547.161 1036.47L541.024 1035.86C536.368 1035.15 530.394 1035.19 525.588 1035.1C515.991 1035.19 508.811 1035.85 499.768 1036.17C488.688 1029.12 481.653 1021.93 474.62 1011C472.832 1003.1 470.956 995.232 468.994 987.378C467.133 980.97 464.133 960.622 462.268 956.553C475.189 952.063 490.185 940.96 502.306 938.126Z" fill="#FCBC8B"/>
<path d="M502.306 938.126C503.965 944.26 505.98 950.292 508.342 956.191C499.645 963.05 483.585 968.512 473.052 972.409C477.803 1000.3 486.744 1016.98 513.784 1029.07C517.973 1030.94 520.194 1034.6 525.588 1035.1C515.991 1035.19 508.811 1035.85 499.768 1036.17C488.688 1029.12 481.653 1021.93 474.62 1011C472.832 1003.1 470.956 995.232 468.994 987.378C467.133 980.97 464.133 960.622 462.268 956.553C475.189 952.063 490.185 940.96 502.306 938.126Z" fill="#E8916D"/>
<path d="M596.032 1064.02C601.071 1054.74 589.977 1042.02 585.098 1034.49C589.051 1037.63 593.99 1041.3 597.443 1044.87C603.15 1050.78 602.7 1055.57 602.473 1063.04C601.123 1063.45 599.063 1064.13 597.751 1064.41L596.032 1064.02Z" fill="#E8916D"/>
<path d="M608.912 1061.18C609.891 1051.07 608.069 1049.85 604.396 1040.81C611.102 1047.47 611.439 1050.91 611.492 1059.86L608.912 1061.18Z" fill="#E8916D"/>
<path d="M563.975 1030.89C567.34 1034.61 569.5 1037.91 570.841 1042.74L569.281 1043.05C567.372 1040.39 565.038 1034.04 563.975 1030.89Z" fill="#E8916D"/>
<path d="M240.281 938.689C245.202 940.008 275.436 954.772 278.453 957.121C277.713 967.42 275.668 977.584 272.366 987.369C270.747 993.816 266.032 1011.39 265.46 1017.22C259.894 1023.13 253.063 1028.22 247.81 1033.67C245.621 1034.72 244.935 1035.17 242.969 1036.62C236.031 1035.54 228.607 1036.28 220.925 1035.25C215.592 1035.24 206.368 1035 201.384 1035.73C186.865 1036.12 193.975 1047.31 182.5 1049.99C180.592 1050.44 176.685 1049.31 175.082 1047.86C173.84 1046.74 172.926 1045.3 172.441 1043.69L170.999 1042.71C166.03 1049.79 156.107 1064.47 146.353 1063.67L144.331 1064.45L139.353 1063.06C137.292 1062.81 134.488 1062.06 132.411 1061.57C131.33 1061.12 130.25 1060.43 129.234 1059.84C118.089 1050.1 137.861 1033.73 145.576 1028.4C153.907 1022.63 169.551 1014.64 179.365 1012.58C198.568 1008.57 201.919 1008.62 213.663 991.458C221.939 979.363 228.437 969.732 234.163 955.401C236.245 949.911 238.483 944.262 240.281 938.689Z" fill="#FCBC8B"/>
<path d="M240.281 938.689C245.202 940.008 275.436 954.772 278.453 957.121C277.714 967.42 275.668 977.584 272.366 987.369C270.747 993.816 266.032 1011.39 265.46 1017.22C259.894 1023.13 253.063 1028.22 247.81 1033.67C245.621 1034.72 244.935 1035.17 242.97 1036.62C236.031 1035.54 228.607 1036.28 220.925 1035.25C254.355 1016.11 263.136 1011.91 269.963 972.858C255.731 967.453 247.032 963.804 234.163 955.401C236.246 949.911 238.483 944.262 240.281 938.689Z" fill="#E8916D"/>
<path d="M139.353 1063.06L139.925 1062.46C139.404 1055.96 138.992 1051.46 143.563 1046.36C147.521 1041.95 152.114 1038.56 156.331 1034.39C151.191 1042.38 142.229 1054.09 146.353 1063.67L144.331 1064.45L139.353 1063.06Z" fill="#E8916D"/>
<path d="M137.725 1040.88C133.84 1048.66 131.217 1052.6 132.41 1061.57C131.329 1061.12 130.25 1060.43 129.233 1059.84C130.388 1057.37 129.765 1051.76 131.126 1048.86C132.535 1045.85 135.128 1042.88 137.725 1040.88Z" fill="#E8916D"/>
<path d="M170.998 1042.71C172.353 1037.82 174.024 1034.99 177.26 1031.07C175.74 1035.83 174.261 1039.12 172.44 1043.69L170.998 1042.71Z" fill="#E8916D"/>
<path d="M199.559 325.143L573.431 346.988L620.901 428.904L621.482 514.211L548.308 507.499L543.698 534.502L530.015 505.822L515.452 512.246L475.134 500.788L481.18 522.01L433.752 498.67L427.177 526.251L377.092 493.582L311.067 518.855L311.435 496.775L266.408 524.972L255.118 506.977L226.675 536.046L223.549 502.914L198.857 517.917L139.577 514.211L199.559 325.143Z" fill="#1E1E1E"/>
<path d="M318.185 577.528L235.692 586.721L235.692 568.335L318.185 577.528Z" fill="#1E1E1E"/>
<path d="M425.08 577.528L507.574 586.721L507.574 568.335L425.08 577.528Z" fill="#1E1E1E"/>
<rect x="243.234" y="624.636" width="74.374" height="8.35663" fill="#1E1E1E"/>
<rect x="425.08" y="624.636" width="74.374" height="8.35663" fill="#1E1E1E"/>
<path d="M-545.089 849.715C-528.109 842.011 -495.701 845.238 -477.629 847.007C-477.307 847.036 -476.986 847.065 -476.664 847.094C-472.493 847.513 -468.485 847.627 -463.693 847.752C-452.463 848.05 -437.321 848.454 -405.607 853.438C-396.278 853.271 -387.154 853.185 -377.917 853.199C-326.171 853.273 -275.14 855.053 -223.318 857.835C-175.22 860.438 -126.993 863.917 -78.76 867.691C-77.517 867.652 -76.251 867.613 -74.9701 867.573C-50.0545 866.797 -19.0729 865.837 0.562561 868.68C25.0979 872.294 42.2363 875.643 55.8907 878.531C135.18 884.804 214.246 890.41 293.518 892.762C318.309 893.499 343.178 893.91 367.977 893.929C390.844 893.946 413.701 893.716 436.558 893.27C449.883 891.595 462.539 889.602 474.259 887.755C490.769 885.16 505.467 882.856 517.562 882.109C546.823 880.31 579.987 883.204 604.536 885.354C608.532 885.706 612.343 886.038 615.874 886.326C635.523 885.283 654.908 884.164 674.564 883.02C675.869 883.664 677.182 884.336 678.517 885.025C695.061 893.618 715.744 893.521 747.973 893.382C762.154 893.322 778.158 893.257 797.541 893.889C809.921 894.297 816.133 897.704 821.331 900.484C822.875 901.301 824.321 902.066 825.783 902.684C830.793 904.8 836.056 902.519 842.23 899.825C850.256 896.33 859.7 892.131 872.588 895.937C912.885 908.063 930.757 899.863 944.447 893.66C948.443 891.84 952.043 890.196 955.707 889.284C967.381 886.326 984.764 889.273 997.392 893.311C1007.33 896.513 1028.01 893.355 1043.36 889.332C1049.3 887.811 1057.24 887.777 1066.33 887.745C1067.15 887.742 1067.98 887.739 1068.81 887.735C1078.13 887.695 1088.34 887.535 1098.95 885.979C1129.39 881.673 1145.03 879.585 1158.04 877.914C1161.76 877.438 1165.18 877.004 1168.55 876.552C1179.02 875.122 1192.59 873.946 1206.24 872.759C1222.21 871.339 1238.73 869.896 1251.39 867.966C1283.52 870.022 1316.45 872.562 1348.51 875.081C1365.44 876.388 1381.04 883.767 1392.89 895.914C1398.46 901.905 1403.34 908.803 1405.54 916.173C1406.96 919.957 1408.02 923.856 1408.29 927.893C1408.34 929.957 1408.49 931.845 1407.05 934.454C1406.64 935.156 1406.06 935.907 1405.16 937.15C1404.29 938.303 1402.92 940.632 1402.83 942.603C1402.72 944.556 1403.38 945.223 1403.86 945.433C1404.38 945.644 1404.9 945.571 1405.42 945.584C1406.5 945.615 1407.4 945.566 1408.7 944.751C1409.37 944.394 1410.13 944.447 1410.5 944.827C1410.89 945.19 1411.06 945.704 1411.16 946.212C1411.48 948.287 1411.11 950.426 1410.75 952.492C1409.95 956.639 1408.66 960.663 1406.99 964.537C1403.38 972.072 1398.87 978.972 1393.13 985.002C1381.14 997.209 1365.51 1004.61 1348.54 1005.93C1315.34 1008.55 1281.17 1011.16 1247.98 1013.23C1206.83 1015.75 1166.28 1017.48 1125.14 1017.46C1106.69 1017.46 1087.95 1017.28 1068.75 1016.95C1059.2 1016.78 1049.39 1016.57 1039.35 1016.32C1036.29 1016.25 1033.54 1016.17 1030.6 1016.09C1006.56 1020.13 982.654 1023.8 965.628 1025.11C951.885 1026.18 941.482 1024.01 932.743 1022.16C926.841 1020.88 921.572 1019.75 916.204 1019.93C913.321 1020.02 909.372 1020.27 904.573 1020.57C885.182 1021.78 852.388 1023.85 822.15 1019.87C808.891 1018.11 793.48 1014.64 778.539 1011.32C757.671 1006.59 737.549 1002.17 727.805 1003.52C710.399 1005.88 690.227 1003.86 672.593 1002.06C655.623 1000.35 640.92 998.861 632.517 1001.6C622.507 1004.87 613.78 1003.53 601.158 1001.54C592.356 1000.16 581.533 998.479 566.742 997.794C549.796 997.004 537.761 994.699 527.512 992.738C513.097 989.979 502.338 987.905 486.167 991.696C468.211 995.908 449.524 998.584 434.744 997.238C428.02 996.626 420.341 996.768 412.342 996.917C401.753 997.115 390.62 997.319 380.446 995.795C372.063 994.54 365.139 991.338 359.014 988.504C357.104 987.62 355.27 986.776 353.495 986.034C346.826 986.07 340.155 986.125 333.469 986.214C332.386 986.728 331.249 987.297 330.062 987.884C324.105 990.831 316.784 994.445 307.736 996.242C293.451 999.085 280.778 997.288 267.543 995.381C257.248 993.896 246.466 992.346 234.13 992.889C225.713 993.259 216.202 994.559 206.709 995.846C192.552 997.757 178.659 999.639 169.046 998.428C165.464 997.974 162.301 995.964 159.214 993.964C159.201 993.952 159.187 993.94 159.173 993.928C158.964 993.792 158.753 993.659 158.543 993.524C134.955 995.035 111.394 996.702 87.9185 998.458C85.8892 998.973 83.8413 999.48 81.8144 999.979C71.7859 1002.42 62.0264 1004.79 55.7215 1008.16C48.9177 1011.81 31.6426 1013.93 13.4688 1016.16C1.68018 1017.61 -10.7064 1019.12 -20.7692 1021.14C-26.6424 1022.32 -32.1811 1020.25 -37.8474 1018.11C-43.0516 1016.12 -48.7433 1014.07 -54.7384 1014.57C-57.7574 1014.82 -61.0087 1015.67 -64.4644 1016.58C-67.5067 1017.39 -70.7129 1018.24 -74.0558 1018.76C-77.1266 1019.24 -84.1323 1018.11 -93.1696 1016.67C-98.733 1015.78 -105.014 1014.77 -111.543 1013.94C-129.003 1015.21 -146.315 1016.43 -163.898 1017.56C-167.574 1019.37 -170.743 1021.72 -173.243 1024.74C-175.037 1026.91 -176.56 1029.5 -178.121 1032.15C-180.245 1035.75 -182.437 1039.47 -185.437 1042.44C-187.784 1044.76 -190.515 1045.68 -192.474 1044.72C-193.367 1044.27 -194.051 1043.42 -194.672 1042.65C-195.383 1041.77 -196.017 1040.99 -196.791 1041.01C-197.349 1041.03 -197.929 1041.65 -198.643 1042.4C-199.781 1043.6 -201.261 1045.15 -203.498 1045.2C-209.808 1045.35 -216.686 1045.1 -223.527 1044.75C-225.819 1044.64 -228.106 1044.51 -230.371 1044.39C-240.828 1043.84 -250.512 1043.3 -258.579 1043.75C-267.836 1044.26 -280.078 1041.94 -293.116 1039.62C-302.205 1038 -310.747 1036.39 -318.547 1035.73C-326.193 1035.08 -333.987 1036.34 -341.372 1037.58C-350.607 1039.06 -359.398 1040.49 -366.632 1038.46C-368.063 1038.05 -369.995 1035.54 -372.37 1032.41C-374.055 1030.19 -375.985 1027.65 -378.166 1025.31C-387.611 1025.29 -396.986 1025.18 -406.512 1024.97C-406.844 1025.31 -407.186 1025.66 -407.529 1026.01C-407.534 1026.02 -407.54 1026.03 -407.545 1026.03C-415.065 1033.98 -426.127 1044.85 -440.765 1038.33C-444.64 1036.68 -447.033 1033.62 -449.183 1030.87C-451.291 1028.17 -453.166 1025.76 -455.883 1025.25C-458.901 1024.67 -462.731 1026.32 -466.811 1028.11C-472.61 1030.63 -478.55 1033.44 -485.17 1030.8C-485.61 1030.62 -486.081 1030.42 -486.571 1030.22C-491.277 1028.34 -497.751 1025.56 -504.769 1019.98C-524.87 1018.46 -544.96 1016.67 -565.133 1014.72C-598.615 1011.47 -632.428 1007.76 -665.876 1004.02C-682.291 1002.18 -697.85 994.531 -709.362 982.34C-720.848 970.131 -727.256 954.479 -727.179 938.321C-727.103 922.165 -720.543 906.585 -708.955 894.485C-697.339 882.4 -681.751 874.888 -665.365 873.175C-638.769 870.416 -612.18 867.63 -585.611 865.058C-584.226 864.726 -582.823 864.405 -581.413 864.104C-571.009 861.867 -561.424 857.343 -551.75 852.812C-549.481 851.772 -547.251 850.729 -545.089 849.715Z" fill="#935EDD"/>
<path d="M157.274 918.236C157.595 918.838 157.775 919.379 157.815 919.86C157.895 920.341 157.935 921.042 157.935 921.964V955.335C157.935 958.101 157.174 959.724 155.65 960.205C154.889 960.446 153.927 960.566 152.764 960.566C151.602 960.566 150.68 960.466 149.999 960.265C149.317 960.065 148.796 959.824 148.435 959.544C148.074 959.263 147.794 958.862 147.593 958.341C147.393 957.66 147.293 956.618 147.293 955.215V935.072C146.291 936.315 144.828 938.299 142.904 941.025C140.979 943.71 139.757 945.394 139.236 946.075C138.715 946.757 138.354 947.238 138.153 947.518C137.953 947.759 137.452 948.12 136.65 948.601C135.889 949.042 135.047 949.262 134.125 949.262C133.243 949.262 132.421 949.062 131.66 948.661C130.938 948.22 130.417 947.799 130.096 947.398L129.615 946.737C128.814 945.735 127.23 943.61 124.865 940.363C122.5 937.076 121.218 935.313 121.017 935.072V955.335C121.017 956.257 120.977 956.958 120.897 957.439C120.857 957.88 120.677 958.381 120.356 958.943C119.755 960.025 118.191 960.566 115.666 960.566C113.221 960.566 111.698 960.025 111.096 958.943C110.776 958.381 110.575 957.86 110.495 957.379C110.455 956.898 110.435 956.177 110.435 955.215V921.844C110.435 920.922 110.455 920.241 110.495 919.8C110.575 919.319 110.776 918.778 111.096 918.176C111.698 917.134 113.261 916.613 115.786 916.613C116.868 916.613 117.79 916.753 118.552 917.034C119.354 917.274 119.875 917.535 120.115 917.816L120.476 918.176L134.125 936.094C140.939 927.075 145.489 921.123 147.774 918.236C148.455 917.154 150.059 916.613 152.584 916.613C155.149 916.613 156.713 917.154 157.274 918.236ZM193.297 941.025C193.297 943.47 192.676 945.294 191.433 946.496C190.231 947.659 188.888 948.24 187.405 948.24H173.154C173.154 949.362 173.816 950.304 175.139 951.066C176.461 951.827 177.784 952.208 179.107 952.208C181.432 952.208 183.256 951.968 184.579 951.487L185.24 951.246C186.202 950.805 187.004 950.585 187.645 950.585C188.928 950.585 190.03 951.487 190.952 953.291C191.473 954.373 191.734 955.295 191.734 956.056C191.734 959.624 187.465 961.408 178.927 961.408C175.96 961.408 173.315 960.907 170.99 959.905C168.705 958.862 166.921 957.499 165.639 955.816C163.113 952.569 161.851 948.941 161.851 944.933C161.851 939.882 163.474 935.854 166.721 932.847C170.008 929.801 174.096 928.278 178.987 928.278C184.559 928.278 188.647 930.242 191.253 934.17C192.616 936.255 193.297 938.539 193.297 941.025ZM180.61 942.768C182.133 942.768 182.895 942.127 182.895 940.844C182.895 939.922 182.534 939.181 181.813 938.62C181.131 938.058 180.129 937.778 178.806 937.778C177.524 937.778 176.241 938.319 174.958 939.401C173.676 940.443 173.034 941.566 173.034 942.768H180.61ZM211.29 960.506C207.241 960.506 203.874 958.983 201.188 955.936C198.543 952.85 197.22 949.102 197.22 944.692V934.17C197.22 933.208 197.24 932.507 197.28 932.066C197.36 931.625 197.541 931.104 197.821 930.502C198.382 929.42 199.946 928.879 202.511 928.879C205.317 928.879 206.96 929.641 207.441 931.164C207.682 931.805 207.802 932.827 207.802 934.23V944.753C207.802 946.396 208.263 947.679 209.185 948.601C210.147 949.523 211.41 949.984 212.973 949.984C214.577 949.984 215.859 949.503 216.821 948.541C217.823 947.579 218.325 946.316 218.325 944.753V934.11C218.325 933.188 218.345 932.507 218.385 932.066C218.465 931.585 218.665 931.044 218.986 930.442C219.507 929.4 221.05 928.879 223.616 928.879C226.141 928.879 227.684 929.42 228.245 930.502C228.526 931.104 228.686 931.645 228.726 932.126C228.807 932.567 228.847 933.248 228.847 934.17V955.455C228.847 956.337 228.807 957.018 228.726 957.499C228.686 957.94 228.506 958.441 228.185 959.003C227.584 960.045 226.041 960.566 223.556 960.566C221.11 960.566 219.607 960.085 219.046 959.123C218.645 958.441 218.445 957.62 218.445 956.658C218.284 956.938 217.924 957.339 217.362 957.86C216.801 958.381 216.26 958.822 215.739 959.183C214.376 960.065 212.893 960.506 211.29 960.506ZM268.974 956.658C267.451 958.662 265.026 959.664 261.699 959.664C258.372 959.664 255.245 958.141 252.319 955.094C249.433 952.008 247.99 948.42 247.99 944.332C247.99 940.243 249.453 936.655 252.379 933.569C255.305 930.482 258.512 928.939 261.999 928.939C263.362 928.939 264.605 929.2 265.727 929.721C266.85 930.202 267.611 930.663 268.012 931.104C268.453 931.505 268.794 931.885 269.034 932.246C269.154 931.124 269.555 930.282 270.237 929.721C270.958 929.119 272.101 928.819 273.664 928.819C275.227 928.819 276.37 928.939 277.091 929.18C277.813 929.42 278.314 929.841 278.594 930.442C278.915 931.003 279.095 931.505 279.136 931.945C279.216 932.386 279.256 933.068 279.256 933.99V958.882C279.256 963.492 277.652 967.2 274.446 970.006C271.239 972.852 267.631 974.275 263.623 974.275C260.576 974.275 257.67 973.533 254.904 972.05C252.138 970.567 250.756 969.224 250.756 968.022C250.756 966.458 251.357 965.076 252.559 963.873C253.321 963.031 253.902 962.45 254.303 962.129C254.744 961.809 255.245 961.648 255.806 961.648C256.367 961.648 256.949 961.889 257.55 962.37C259.474 963.853 261.558 964.594 263.803 964.594C265.326 964.594 266.569 963.993 267.531 962.791C268.493 961.588 268.974 960.145 268.974 958.462V956.658ZM258.271 944.392C258.271 945.674 258.772 946.837 259.775 947.879C260.817 948.921 262.059 949.442 263.502 949.442C264.986 949.442 266.208 948.921 267.17 947.879C268.132 946.797 268.613 945.634 268.613 944.392C268.613 943.109 268.152 941.927 267.23 940.844C266.308 939.722 265.066 939.161 263.502 939.161C261.939 939.161 260.677 939.702 259.714 940.784C258.752 941.866 258.271 943.069 258.271 944.392ZM305.589 929.3C306.351 929.54 306.972 929.961 307.453 930.563C307.974 931.124 308.235 932.046 308.235 933.328C308.235 934.611 307.854 936.014 307.092 937.537C306.331 939.061 305.228 939.822 303.785 939.822C303.064 939.822 302.362 939.662 301.681 939.341C301.04 939.02 300.178 938.86 299.095 938.86C298.013 938.86 296.991 939.241 296.029 940.003C295.107 940.764 294.646 941.686 294.646 942.768V955.395C294.646 956.317 294.606 957.018 294.526 957.499C294.486 957.94 294.305 958.462 293.985 959.063C293.383 960.105 291.82 960.626 289.295 960.626C287.371 960.626 285.988 960.285 285.146 959.604C284.505 959.043 284.144 958.181 284.064 957.018C284.064 956.618 284.064 956.036 284.064 955.275V934.17C284.064 933.248 284.084 932.567 284.124 932.126C284.204 931.645 284.384 931.124 284.665 930.563C285.226 929.48 286.789 928.939 289.355 928.939C291.76 928.939 293.263 929.4 293.864 930.322C294.305 930.963 294.526 931.625 294.526 932.306C294.726 932.026 295.007 931.685 295.368 931.284C295.768 930.883 296.59 930.342 297.833 929.661C299.075 928.979 300.158 928.638 301.08 928.638C302.042 928.638 302.843 928.699 303.485 928.819C304.126 928.899 304.828 929.059 305.589 929.3ZM330.287 932.306C330.527 930.061 332.111 928.939 335.037 928.939C336.6 928.939 337.763 929.059 338.524 929.3C339.286 929.54 339.807 929.961 340.088 930.563C340.408 931.164 340.589 931.705 340.629 932.186C340.709 932.627 340.749 933.308 340.749 934.23V955.275C340.749 956.197 340.709 956.898 340.629 957.379C340.589 957.82 340.428 958.341 340.148 958.943C339.586 959.985 338.204 960.506 335.999 960.506C333.834 960.506 332.371 960.245 331.61 959.724C330.888 959.163 330.467 958.361 330.347 957.319C328.864 959.444 326.379 960.506 322.891 960.506C319.444 960.506 316.237 958.922 313.271 955.756C310.305 952.589 308.821 948.921 308.821 944.753C308.821 940.544 310.305 936.876 313.271 933.749C316.277 930.583 319.564 928.999 323.132 928.999C324.495 928.999 325.737 929.24 326.86 929.721C327.982 930.202 328.764 930.663 329.205 931.104C329.645 931.505 330.006 931.905 330.287 932.306ZM319.344 944.813C319.344 946.135 319.865 947.338 320.907 948.42C321.949 949.462 323.212 949.984 324.695 949.984C326.178 949.984 327.401 949.442 328.363 948.36C329.365 947.278 329.866 946.095 329.866 944.813C329.866 943.49 329.385 942.267 328.423 941.145C327.501 940.023 326.238 939.461 324.635 939.461C323.072 939.461 321.789 940.023 320.787 941.145C319.825 942.267 319.344 943.49 319.344 944.813ZM363.158 928.939C367.167 928.939 370.494 930.482 373.14 933.569C375.825 936.615 377.168 940.343 377.168 944.753V955.335C377.168 956.257 377.128 956.958 377.048 957.439C377.008 957.88 376.847 958.381 376.567 958.943C376.006 960.025 374.442 960.566 371.877 960.566C369.031 960.566 367.387 959.824 366.946 958.341C366.706 957.66 366.586 956.638 366.586 955.275V944.692C366.586 943.049 366.105 941.766 365.143 940.844C364.221 939.922 362.958 939.461 361.355 939.461C359.791 939.461 358.509 939.942 357.507 940.904C356.544 941.866 356.063 943.129 356.063 944.692V955.335C356.063 956.257 356.023 956.958 355.943 957.439C355.903 957.88 355.723 958.381 355.402 958.943C354.881 960.025 353.338 960.566 350.772 960.566C348.247 960.566 346.704 960.025 346.142 958.943C345.862 958.341 345.682 957.82 345.601 957.379C345.561 956.898 345.541 956.197 345.541 955.275V933.99C345.541 933.108 345.561 932.447 345.601 932.006C345.682 931.525 345.882 931.003 346.203 930.442C346.764 929.44 348.307 928.939 350.832 928.939C353.278 928.939 354.781 929.4 355.342 930.322C355.743 931.003 355.943 931.825 355.943 932.787C356.104 932.507 356.464 932.106 357.025 931.585C357.587 931.064 358.128 930.643 358.649 930.322C360.012 929.4 361.515 928.939 363.158 928.939ZM403.23 915.771C403.551 915.17 404.092 914.749 404.853 914.509C405.615 914.268 406.617 914.148 407.86 914.148C409.142 914.148 410.165 914.268 410.926 914.509C411.688 914.749 412.209 915.17 412.489 915.771C412.81 916.373 412.991 916.914 413.031 917.395C413.111 917.836 413.151 918.517 413.151 919.439V955.335C413.151 956.257 413.111 956.958 413.031 957.439C412.991 957.88 412.81 958.381 412.489 958.943C411.888 960.025 410.185 960.566 407.379 960.566C404.613 960.566 403.07 959.584 402.749 957.62C401.065 959.544 398.72 960.506 395.714 960.506C392.106 960.506 388.819 958.943 385.853 955.816C382.887 952.649 381.404 948.981 381.404 944.813C381.404 940.604 382.887 936.916 385.853 933.749C388.86 930.583 392.146 928.999 395.714 928.999C398.68 928.999 400.985 930.001 402.629 932.006V919.379C402.629 918.457 402.649 917.776 402.689 917.335C402.769 916.854 402.949 916.332 403.23 915.771ZM393.489 948.42C394.532 949.503 395.794 950.044 397.277 950.044C398.76 950.044 399.983 949.503 400.945 948.42C401.947 947.338 402.448 946.156 402.448 944.873C402.448 943.55 401.967 942.327 401.005 941.205C400.083 940.083 398.821 939.521 397.217 939.521C395.614 939.521 394.331 940.083 393.369 941.205C392.407 942.287 391.926 943.49 391.926 944.813C391.926 946.135 392.447 947.338 393.489 948.42ZM448.485 941.025C448.485 943.47 447.864 945.294 446.621 946.496C445.418 947.659 444.076 948.24 442.592 948.24H428.342C428.342 949.362 429.004 950.304 430.327 951.066C431.649 951.827 432.972 952.208 434.295 952.208C436.62 952.208 438.444 951.968 439.767 951.487L440.428 951.246C441.39 950.805 442.192 950.585 442.833 950.585C444.116 950.585 445.218 951.487 446.14 953.291C446.661 954.373 446.922 955.295 446.922 956.056C446.922 959.624 442.653 961.408 434.115 961.408C431.148 961.408 428.503 960.907 426.178 959.905C423.893 958.862 422.109 957.499 420.826 955.816C418.301 952.569 417.038 948.941 417.038 944.933C417.038 939.882 418.662 935.854 421.909 932.847C425.196 929.801 429.284 928.278 434.175 928.278C439.746 928.278 443.835 930.242 446.441 934.17C447.803 936.255 448.485 938.539 448.485 941.025ZM435.798 942.768C437.321 942.768 438.083 942.127 438.083 940.844C438.083 939.922 437.722 939.181 437.001 938.62C436.319 938.058 435.317 937.778 433.994 937.778C432.712 937.778 431.429 938.319 430.146 939.401C428.863 940.443 428.222 941.566 428.222 942.768H435.798ZM467.616 969.224V934.11C467.616 933.188 467.636 932.507 467.676 932.066C467.756 931.625 467.936 931.124 468.217 930.563C468.778 929.48 470.121 928.939 472.245 928.939C474.37 928.939 475.793 929.22 476.514 929.781C477.276 930.302 477.717 931.084 477.837 932.126C479.361 930.041 481.746 928.999 484.992 928.999C488.279 928.999 491.386 930.543 494.312 933.629C497.238 936.716 498.701 940.303 498.701 944.392C498.701 948.48 497.238 952.068 494.312 955.155C491.426 958.241 488.339 959.784 485.053 959.784C481.766 959.784 479.381 958.862 477.897 957.018V969.164C477.897 970.086 477.857 970.768 477.777 971.208C477.737 971.649 477.557 972.15 477.236 972.712C476.955 973.313 476.454 973.734 475.733 973.974C475.011 974.215 474.029 974.335 472.787 974.335C471.544 974.335 470.542 974.215 469.78 973.974C469.059 973.734 468.538 973.333 468.217 972.772C467.936 972.211 467.756 971.71 467.676 971.269C467.636 970.828 467.616 970.146 467.616 969.224ZM479.521 940.904C478.599 941.987 478.138 943.169 478.138 944.452C478.138 945.735 478.599 946.917 479.521 947.999C480.483 949.042 481.685 949.563 483.128 949.563C484.612 949.563 485.854 949.042 486.856 947.999C487.899 946.957 488.42 945.775 488.42 944.452C488.42 943.129 487.939 941.947 486.977 940.904C486.015 939.822 484.752 939.281 483.189 939.281C481.665 939.281 480.443 939.822 479.521 940.904ZM501.71 944.813C501.71 940.003 503.393 936.034 506.76 932.908C510.127 929.781 513.976 928.218 518.305 928.218C522.634 928.218 526.462 929.781 529.789 932.908C533.116 935.994 534.78 939.942 534.78 944.753C534.78 948.08 533.918 951.046 532.194 953.651C530.47 956.217 528.366 958.121 525.881 959.363C523.436 960.566 520.89 961.167 518.245 961.167C515.599 961.167 513.034 960.526 510.548 959.243C508.063 957.92 505.959 955.996 504.235 953.471C502.551 950.906 501.71 948.019 501.71 944.813ZM514.276 949.142C515.559 950.104 516.862 950.585 518.184 950.585C519.507 950.585 520.83 950.084 522.153 949.082C523.476 948.08 524.137 946.596 524.137 944.632C524.137 942.668 523.516 941.205 522.273 940.243C521.03 939.281 519.688 938.8 518.245 938.8C516.802 938.8 515.459 939.301 514.216 940.303C512.973 941.305 512.352 942.788 512.352 944.753C512.352 946.677 512.993 948.14 514.276 949.142ZM538.905 957.8C538.143 957.319 537.762 956.557 537.762 955.515C537.762 954.473 538.524 952.89 540.047 950.765C540.488 950.084 541.19 949.743 542.152 949.743C543.154 949.743 544.497 950.244 546.18 951.246C547.864 952.208 549.387 952.689 550.75 952.689C553.195 952.689 554.418 952.208 554.418 951.246C554.418 950.485 553.075 949.923 550.389 949.563C547.864 949.202 545.358 948.26 542.873 946.737C541.711 946.015 540.749 944.893 539.987 943.37C539.225 941.806 538.845 939.962 538.845 937.838C538.845 931.505 543.194 928.338 551.892 928.338C554.738 928.338 557.664 929.019 560.671 930.382C562.074 931.024 562.775 931.825 562.775 932.787C562.775 933.749 562.334 934.932 561.452 936.335C560.571 937.738 559.669 938.439 558.747 938.439C558.266 938.439 557.364 938.139 556.041 937.537C554.758 936.936 553.355 936.635 551.832 936.635C549.467 936.635 548.285 937.076 548.285 937.958C548.285 939.161 549.648 939.942 552.373 940.303C555.019 940.584 557.584 941.345 560.07 942.588C561.232 943.149 562.194 944.131 562.956 945.534C563.757 946.897 564.158 948.621 564.158 950.705C564.158 952.79 563.757 954.573 562.956 956.056C562.194 957.499 561.112 958.582 559.709 959.303C557.143 960.546 553.917 961.167 550.028 961.167C546.18 961.167 542.472 960.045 538.905 957.8ZM585.541 939.582L581.633 939.341V947.639C581.633 948.721 581.793 949.503 582.114 949.984C582.475 950.465 583.116 950.705 584.038 950.705C585 950.705 585.722 950.745 586.203 950.825C586.724 950.865 587.265 951.046 587.826 951.367C588.748 951.888 589.209 953.23 589.209 955.395C589.209 957.92 588.648 959.464 587.526 960.025C586.924 960.305 586.383 960.486 585.902 960.566C585.461 960.606 584.8 960.626 583.918 960.626C579.749 960.626 576.582 959.684 574.418 957.8C572.253 955.916 571.171 952.729 571.171 948.24V939.341C570.409 939.461 569.588 939.521 568.706 939.521C567.824 939.521 567.082 939.181 566.481 938.499C565.92 937.818 565.639 936.655 565.639 935.012C565.639 933.368 565.74 932.186 565.94 931.464C566.14 930.703 566.421 930.162 566.782 929.841C567.423 929.32 568.225 929.059 569.187 929.059L571.171 929.3V923.107C571.171 922.185 571.191 921.503 571.231 921.062C571.311 920.622 571.512 920.141 571.832 919.619C572.353 918.617 573.897 918.116 576.462 918.116C579.188 918.116 580.811 918.858 581.332 920.341C581.533 920.982 581.633 922.004 581.633 923.407V929.3C583.397 929.14 584.72 929.059 585.602 929.059C586.523 929.059 587.205 929.099 587.646 929.18C588.127 929.22 588.668 929.4 589.269 929.721C590.311 930.242 590.833 931.785 590.833 934.351C590.833 936.876 590.291 938.419 589.209 938.98C588.608 939.261 588.067 939.441 587.586 939.521C587.145 939.562 586.463 939.582 585.541 939.582ZM623.523 941.025C623.523 943.47 622.902 945.294 621.659 946.496C620.456 947.659 619.114 948.24 617.63 948.24H603.38C603.38 949.362 604.042 950.304 605.365 951.066C606.687 951.827 608.01 952.208 609.333 952.208C611.658 952.208 613.482 951.968 614.804 951.487L615.466 951.246C616.428 950.805 617.23 950.585 617.871 950.585C619.154 950.585 620.256 951.487 621.178 953.291C621.699 954.373 621.96 955.295 621.96 956.056C621.96 959.624 617.691 961.408 609.153 961.408C606.186 961.408 603.541 960.907 601.216 959.905C598.931 958.862 597.147 957.499 595.864 955.816C593.339 952.569 592.076 948.941 592.076 944.933C592.076 939.882 593.7 935.854 596.947 932.847C600.234 929.801 604.322 928.278 609.213 928.278C614.784 928.278 618.873 930.242 621.479 934.17C622.841 936.255 623.523 938.539 623.523 941.025ZM610.836 942.768C612.359 942.768 613.121 942.127 613.121 940.844C613.121 939.922 612.76 939.181 612.039 938.62C611.357 938.058 610.355 937.778 609.032 937.778C607.75 937.778 606.467 938.319 605.184 939.401C603.901 940.443 603.26 941.566 603.26 942.768H610.836ZM648.971 929.3C649.733 929.54 650.354 929.961 650.835 930.563C651.356 931.124 651.617 932.046 651.617 933.328C651.617 934.611 651.236 936.014 650.474 937.537C649.713 939.061 648.61 939.822 647.167 939.822C646.446 939.822 645.744 939.662 645.063 939.341C644.422 939.02 643.56 938.86 642.478 938.86C641.395 938.86 640.373 939.241 639.411 940.003C638.489 940.764 638.028 941.686 638.028 942.768V955.395C638.028 956.317 637.988 957.018 637.908 957.499C637.868 957.94 637.687 958.462 637.367 959.063C636.765 960.105 635.202 960.626 632.677 960.626C630.753 960.626 629.37 960.285 628.528 959.604C627.887 959.043 627.526 958.181 627.446 957.018C627.446 956.618 627.446 956.036 627.446 955.275V934.17C627.446 933.248 627.466 932.567 627.506 932.126C627.586 931.645 627.766 931.124 628.047 930.563C628.608 929.48 630.171 928.939 632.737 928.939C635.142 928.939 636.645 929.4 637.246 930.322C637.687 930.963 637.908 931.625 637.908 932.306C638.108 932.026 638.389 931.685 638.75 931.284C639.15 930.883 639.972 930.342 641.215 929.661C642.457 928.979 643.54 928.638 644.462 928.638C645.424 928.638 646.225 928.699 646.867 928.819C647.508 928.899 648.21 929.059 648.971 929.3Z" fill="white"/>
<path d="M172.769 173.375V97.9535C172.769 96.1347 173.558 94.7328 175.141 93.7452C176.729 92.7527 178.63 92.2564 180.848 92.2564H222.057C223.876 92.2564 225.258 93.048 226.206 94.6286C227.159 96.2116 227.635 98.0726 227.635 100.216C227.635 102.514 227.139 104.452 226.147 106.033C225.159 107.616 223.797 108.405 222.057 108.405H191.299V128.473H209.234C210.973 128.473 212.336 129.188 213.323 130.617C214.316 132.041 214.812 133.741 214.812 135.719C214.812 137.545 214.336 139.17 213.383 140.592C212.435 142.016 211.053 142.726 209.234 142.726H191.299V173.375C191.299 175.196 190.386 176.6 188.56 177.593C186.739 178.581 184.563 179.072 182.029 179.072C179.501 179.072 177.325 178.581 175.498 177.593C173.677 176.6 172.769 175.196 172.769 173.375Z" fill="#8B3F90"/>
<path d="M226.688 164.462C226.688 157.892 229.082 153.262 233.874 150.567C238.663 147.875 245.531 146.527 254.478 146.527H258.756V145.346C258.756 142.972 258.042 140.915 256.612 139.173C255.188 137.426 252.935 136.552 249.853 136.552C246.047 136.552 242.918 137.208 240.464 138.518C238.008 139.823 236.506 140.473 235.958 140.473C234.057 140.473 232.554 139.545 231.442 137.684C230.335 135.825 229.785 133.709 229.785 131.332C229.785 128.719 231.981 126.483 236.375 124.622C240.767 122.757 245.34 121.824 250.092 121.824C259.195 121.824 265.984 124.044 270.458 128.483C274.929 132.917 277.167 138.458 277.167 145.108V173.375C277.167 174.958 276.314 176.303 274.607 177.414C272.905 178.521 270.751 179.072 268.145 179.072C265.848 179.072 263.907 178.521 262.319 177.414C260.736 176.303 259.947 174.958 259.947 173.375V170.755C254.481 177.094 248.464 180.263 241.893 180.263C237.539 180.263 233.916 178.918 231.025 176.223C228.132 173.531 226.688 169.611 226.688 164.462ZM245.218 161.852C245.218 165.182 246.762 166.844 249.853 166.844C251.831 166.844 253.808 165.737 255.789 163.519C257.766 161.296 258.756 158.763 258.756 155.916V155.44H258.28C255.664 155.44 253.508 155.559 251.809 155.797C250.106 156.036 248.583 156.651 247.233 157.643C245.888 158.631 245.218 160.033 245.218 161.852Z" fill="#F87828"/>
<path d="M285.481 173.375V95.8196C285.481 94.1596 286.33 92.8122 288.032 91.78C289.739 90.7478 291.938 90.2317 294.632 90.2317C297.238 90.2317 299.431 90.7478 301.213 91.78C302.999 92.8122 303.893 94.1596 303.893 95.8196V173.375C303.893 174.799 302.98 176.104 301.153 177.295C299.332 178.481 297.158 179.072 294.632 179.072C292.017 179.072 289.839 178.501 288.092 177.355C286.35 176.203 285.481 174.878 285.481 173.375Z" fill="#E84A8C"/>
<path d="M309.473 164.462C309.473 157.892 311.867 153.262 316.658 150.567C321.447 147.875 328.316 146.527 337.263 146.527H341.541V145.346C341.541 142.972 340.826 140.915 339.397 139.173C337.973 137.426 335.72 136.552 332.638 136.552C328.832 136.552 325.703 137.208 323.249 138.518C320.792 139.823 319.291 140.473 318.743 140.473C316.842 140.473 315.338 139.545 314.227 137.684C313.12 135.825 312.569 133.709 312.569 131.332C312.569 128.719 314.765 126.483 319.16 124.622C323.551 122.757 328.125 121.824 332.876 121.824C341.98 121.824 348.769 124.044 353.243 128.483C357.714 132.917 359.952 138.458 359.952 145.108V173.375C359.952 174.958 359.098 176.303 357.391 177.414C355.689 178.521 353.535 179.072 350.93 179.072C348.632 179.072 346.692 178.521 345.104 177.414C343.521 176.303 342.732 174.958 342.732 173.375V170.755C337.266 177.094 331.248 180.263 324.678 180.263C320.323 180.263 316.701 178.918 313.81 176.223C310.917 173.531 309.473 169.611 309.473 164.462ZM328.003 161.852C328.003 165.182 329.546 166.844 332.638 166.844C334.616 166.844 336.593 165.737 338.573 163.519C340.551 161.296 341.541 158.763 341.541 155.916V155.44H341.064C338.449 155.44 336.293 155.559 334.593 155.797C332.891 156.036 331.368 156.651 330.018 157.643C328.673 158.631 328.003 160.033 328.003 161.852Z" fill="#0097B2"/>
<path d="M389.053 173.375V97.8344C389.053 96.0156 389.961 94.6335 391.783 93.6857C393.609 92.7328 395.785 92.2564 398.313 92.2564C400.847 92.2564 403.023 92.7328 404.844 93.6857C406.67 94.6335 407.584 96.0156 407.584 97.8344V126.339L429.796 94.8668C430.98 93.1274 432.6 92.2564 434.659 92.2564C437.113 92.2564 439.547 93.2663 441.964 95.2836C444.379 97.3034 445.587 99.4596 445.587 101.755C445.587 103.025 445.19 104.214 444.396 105.318L424.923 129.783L449.507 167.43C450.143 168.462 450.46 169.492 450.46 170.516C450.46 172.814 449.272 174.933 446.897 176.878C444.52 178.819 441.987 179.786 439.294 179.786C436.441 179.786 434.305 178.64 432.883 176.342L412.566 145.465L407.584 151.877V173.375C407.584 175.196 406.67 176.6 404.844 177.593C403.023 178.581 400.847 179.072 398.313 179.072C395.785 179.072 393.609 178.581 391.783 177.593C389.961 176.6 389.053 175.196 389.053 173.375Z" fill="#63B240"/>
<path d="M456.522 109.06C454.621 107.36 453.673 105.363 453.673 103.065C453.673 100.77 454.621 98.7922 456.522 97.1297C458.42 95.4623 460.715 94.6286 463.41 94.6286C466.023 94.6286 468.278 95.4623 470.179 97.1297C472.077 98.7922 473.027 100.77 473.027 103.065C473.027 105.363 472.077 107.36 470.179 109.06C468.278 110.762 466.023 111.611 463.41 111.611C460.715 111.611 458.42 110.762 456.522 109.06ZM454.259 173.375V128.126C454.259 126.459 455.108 125.114 456.81 124.086C458.517 123.054 460.715 122.538 463.41 122.538C466.023 122.538 468.219 123.054 470 124.086C471.779 125.114 472.67 126.459 472.67 128.126V173.375C472.67 174.799 471.759 176.104 469.941 177.295C468.119 178.481 465.943 179.072 463.41 179.072C460.795 179.072 458.616 178.501 456.869 177.355C455.127 176.204 454.259 174.878 454.259 173.375Z" fill="#0097B2"/>
<path d="M479.605 155.083V146.765C479.605 139.957 481.662 134.098 485.778 129.188C489.9 124.28 494.85 121.823 500.626 121.823C504.033 121.823 507.06 122.697 509.708 124.444C512.361 126.186 514.363 128.322 515.713 130.855V95.8196C515.713 94.1596 516.601 92.8122 518.383 91.78C520.162 90.7478 522.397 90.2317 525.092 90.2317C527.705 90.2317 529.861 90.7478 531.563 91.78C533.263 92.8122 534.114 94.1596 534.114 95.8196V173.375C534.114 174.878 533.243 176.203 531.504 177.355C529.762 178.501 527.625 179.072 525.092 179.072C522.874 179.072 520.953 178.481 519.325 177.295C517.703 176.104 516.894 174.799 516.894 173.375V170.755C515.628 173.37 513.452 175.608 510.363 177.474C507.279 179.332 503.914 180.263 500.269 180.263C494.803 180.263 489.992 177.729 485.838 172.66C481.682 167.593 479.605 161.733 479.605 155.083ZM498.016 155.083C498.016 157.46 498.865 159.576 500.567 161.435C502.267 163.296 504.264 164.224 506.562 164.224C508.857 164.224 510.954 163.276 512.854 161.375C514.76 159.477 515.713 157.892 515.713 156.621V146.765C515.713 144.153 514.78 142.016 512.914 140.354C511.053 138.694 508.976 137.863 506.681 137.863C504.304 137.863 502.267 138.773 500.567 140.592C498.865 142.413 498.016 144.47 498.016 146.765V155.083Z" fill="#FFB937"/>
<path d="M537.327 169.335C537.327 167.675 537.917 165.916 539.103 164.055C540.294 162.189 541.724 161.256 543.391 161.256C544.336 161.256 545.5 161.693 546.885 162.566C548.274 163.435 550.016 164.323 552.115 165.236C554.212 166.149 556.646 166.606 559.42 166.606C564.328 166.606 566.785 165.301 566.785 162.685C566.785 161.256 565.832 160.09 563.926 159.182C562.025 158.269 559.71 157.5 556.978 156.869C554.252 156.234 551.522 155.405 548.79 154.378C546.056 153.346 543.741 151.644 541.843 149.267C539.942 146.892 538.994 143.843 538.994 140.116C538.994 135.049 540.773 130.734 544.334 127.173C547.899 123.608 553.559 121.824 561.316 121.824C566.621 121.824 571.313 122.637 575.39 124.265C579.471 125.888 581.513 127.925 581.513 130.379C581.513 131.962 580.878 133.801 579.608 135.897C578.342 137.997 576.762 139.044 574.864 139.044C574.07 139.044 572.246 138.453 569.395 137.267C566.541 136.076 563.929 135.481 561.554 135.481C559.336 135.481 557.653 135.858 556.502 136.612C555.356 137.366 554.785 138.257 554.785 139.282C554.785 140.473 555.753 141.426 557.693 142.14C559.638 142.85 561.973 143.54 564.7 144.215C567.432 144.89 570.164 145.763 572.898 146.835C575.63 147.902 577.965 149.721 579.906 152.294C581.843 154.869 582.814 158.095 582.814 161.971C582.814 167.668 580.814 172.142 576.819 175.39C572.822 178.64 567.182 180.263 559.896 180.263C553.716 180.263 548.408 179.174 543.977 176.998C539.542 174.821 537.327 172.268 537.327 169.335Z" fill="#0097B2"/>
<path d="M182.645 225.909C185.484 228.637 187.498 230.687 188.685 232.06C189.298 232.747 189.604 233.331 189.604 233.814C189.604 234.278 189.233 234.835 188.49 235.484C187.748 236.115 187.136 236.43 186.653 236.43C186.189 236.43 185.623 236.041 184.955 235.261L178.832 228.275V233.703C178.832 234.148 178.813 234.473 178.776 234.677C178.757 234.881 178.674 235.122 178.526 235.4C178.266 235.902 177.542 236.152 176.354 236.152C175.055 236.152 174.295 235.799 174.072 235.094C173.961 234.797 173.905 234.324 173.905 233.675V218.198C173.905 217.772 173.914 217.456 173.933 217.252C173.97 217.029 174.063 216.779 174.211 216.501C174.471 215.999 175.195 215.749 176.382 215.749C177.681 215.749 178.451 216.092 178.693 216.779C178.785 217.094 178.832 217.577 178.832 218.226V223.543C181.355 220.704 183.397 218.375 184.955 216.556C185.605 215.795 186.171 215.415 186.653 215.415C187.136 215.415 187.748 215.74 188.49 216.389C189.233 217.02 189.604 217.577 189.604 218.059C189.604 218.523 189.326 219.08 188.769 219.729C187.693 220.973 186.022 222.68 183.759 224.851L182.645 225.909ZM190.976 223.932C190.976 223.506 190.985 223.19 191.003 222.986C191.041 222.763 191.124 222.513 191.254 222.235C191.514 221.752 192.237 221.511 193.425 221.511C194.316 221.511 194.947 221.669 195.318 221.984C195.633 222.244 195.8 222.643 195.819 223.181C195.837 223.366 195.847 223.636 195.847 223.988V233.73C195.847 234.157 195.828 234.482 195.791 234.705C195.773 234.909 195.689 235.15 195.541 235.428C195.299 235.911 194.585 236.152 193.397 236.152C192.228 236.152 191.514 235.902 191.254 235.4C191.124 235.122 191.041 234.881 191.003 234.677C190.985 234.473 190.976 234.148 190.976 233.703V223.932ZM195.541 218.783C195.411 219.043 195.169 219.228 194.817 219.34C194.464 219.451 193.991 219.507 193.397 219.507C192.822 219.507 192.358 219.451 192.006 219.34C191.653 219.228 191.402 219.033 191.254 218.755C191.124 218.477 191.041 218.236 191.003 218.031C190.985 217.809 190.976 217.484 190.976 217.057C190.976 216.63 190.985 216.315 191.003 216.111C191.041 215.888 191.124 215.647 191.254 215.387C191.514 214.886 192.237 214.636 193.425 214.636C194.594 214.636 195.299 214.886 195.541 215.387C195.689 215.665 195.773 215.916 195.791 216.139C195.828 216.343 195.847 216.658 195.847 217.085C195.847 217.512 195.828 217.837 195.791 218.059C195.773 218.263 195.689 218.505 195.541 218.783ZM206.588 226.41L204.779 226.298V230.14C204.779 230.641 204.853 231.003 205.001 231.225C205.168 231.448 205.465 231.559 205.892 231.559C206.337 231.559 206.671 231.578 206.894 231.615C207.135 231.633 207.386 231.717 207.646 231.865C208.072 232.107 208.286 232.728 208.286 233.73C208.286 234.899 208.026 235.614 207.506 235.874C207.228 236.004 206.977 236.087 206.755 236.124C206.551 236.143 206.244 236.152 205.836 236.152C203.906 236.152 202.44 235.716 201.438 234.844C200.436 233.972 199.935 232.496 199.935 230.418V226.298C199.583 226.354 199.202 226.382 198.794 226.382C198.386 226.382 198.042 226.224 197.764 225.909C197.504 225.593 197.374 225.055 197.374 224.294C197.374 223.533 197.421 222.986 197.514 222.652C197.606 222.299 197.736 222.049 197.903 221.901C198.2 221.659 198.571 221.539 199.017 221.539L199.935 221.65V218.783C199.935 218.356 199.945 218.041 199.963 217.837C200 217.632 200.093 217.41 200.241 217.169C200.483 216.705 201.197 216.473 202.385 216.473C203.647 216.473 204.398 216.816 204.639 217.503C204.732 217.799 204.779 218.273 204.779 218.922V221.65C205.595 221.576 206.207 221.539 206.616 221.539C207.042 221.539 207.358 221.557 207.562 221.594C207.785 221.613 208.035 221.696 208.314 221.845C208.796 222.086 209.037 222.801 209.037 223.988C209.037 225.157 208.787 225.872 208.286 226.131C208.007 226.261 207.757 226.345 207.534 226.382C207.33 226.4 207.015 226.41 206.588 226.41ZM230.363 230.808L230.864 230.446C231.495 230.075 231.94 229.889 232.2 229.889C232.775 229.889 233.397 230.409 234.065 231.448C234.473 232.097 234.677 232.617 234.677 233.007C234.677 233.396 234.548 233.721 234.288 233.981C234.047 234.241 233.759 234.473 233.425 234.677C233.091 234.881 232.766 235.076 232.451 235.261C232.154 235.447 231.532 235.688 230.586 235.985C229.639 236.282 228.721 236.43 227.83 236.43C226.958 236.43 226.067 236.319 225.158 236.096C224.267 235.855 223.339 235.465 222.374 234.927C221.428 234.371 220.574 233.703 219.814 232.923C219.053 232.125 218.422 231.114 217.921 229.889C217.438 228.646 217.197 227.3 217.197 225.853C217.197 224.406 217.438 223.097 217.921 221.928C218.403 220.741 219.016 219.766 219.758 219.006C220.519 218.226 221.382 217.577 222.347 217.057C224.165 216.055 225.993 215.554 227.83 215.554C228.702 215.554 229.584 215.693 230.474 215.972C231.384 216.231 232.07 216.501 232.534 216.779L233.202 217.169C233.536 217.373 233.796 217.54 233.982 217.67C234.464 218.059 234.705 218.505 234.705 219.006C234.705 219.488 234.51 219.998 234.121 220.537C233.397 221.539 232.748 222.04 232.172 222.04C231.838 222.04 231.365 221.836 230.753 221.427C229.973 220.796 228.934 220.481 227.635 220.481C226.429 220.481 225.241 220.898 224.072 221.733C223.516 222.142 223.052 222.717 222.681 223.459C222.309 224.202 222.124 225.046 222.124 225.992C222.124 226.92 222.309 227.755 222.681 228.497C223.052 229.24 223.525 229.824 224.1 230.251C225.232 231.068 226.41 231.476 227.635 231.476C228.21 231.476 228.749 231.402 229.25 231.253C229.769 231.105 230.14 230.956 230.363 230.808ZM236.089 228.831C236.089 226.605 236.868 224.768 238.427 223.32C239.986 221.873 241.767 221.149 243.771 221.149C245.776 221.149 247.548 221.873 249.088 223.32C250.628 224.749 251.398 226.577 251.398 228.804C251.398 230.344 250.999 231.717 250.201 232.923C249.403 234.111 248.429 234.992 247.279 235.568C246.147 236.124 244.968 236.403 243.744 236.403C242.519 236.403 241.331 236.106 240.181 235.512C239.03 234.899 238.056 234.009 237.258 232.84C236.479 231.652 236.089 230.316 236.089 228.831ZM241.907 230.836C242.5 231.281 243.103 231.504 243.716 231.504C244.328 231.504 244.941 231.272 245.553 230.808C246.165 230.344 246.471 229.657 246.471 228.748C246.471 227.839 246.184 227.161 245.609 226.716C245.033 226.271 244.412 226.048 243.744 226.048C243.076 226.048 242.454 226.28 241.879 226.744C241.303 227.208 241.016 227.894 241.016 228.804C241.016 229.694 241.313 230.372 241.907 230.836ZM257.984 223.431C258.856 222.114 259.905 221.455 261.13 221.455C263.022 221.455 264.433 222.262 265.361 223.877C265.565 223.598 265.806 223.311 266.084 223.014C266.381 222.698 266.845 222.364 267.476 222.012C268.107 221.641 268.756 221.455 269.424 221.455C270.909 221.455 272.152 222.03 273.154 223.181C274.156 224.313 274.657 226.196 274.657 228.831V233.703C274.657 234.129 274.639 234.454 274.602 234.677C274.583 234.881 274.5 235.122 274.351 235.4C274.11 235.902 273.396 236.152 272.208 236.152C271.039 236.152 270.324 235.892 270.065 235.373C269.935 235.094 269.851 234.853 269.814 234.649C269.796 234.426 269.786 234.102 269.786 233.675V228.804C269.786 227.189 269.211 226.382 268.061 226.382C267.411 226.382 266.966 226.595 266.725 227.022C266.502 227.449 266.39 228.052 266.39 228.831V233.703C266.39 234.148 266.372 234.473 266.335 234.677C266.316 234.881 266.233 235.122 266.084 235.4C265.825 235.902 265.101 236.152 263.913 236.152C262.744 236.152 262.03 235.892 261.77 235.373C261.64 235.094 261.556 234.853 261.519 234.649C261.501 234.426 261.492 234.102 261.492 233.675V228.804C261.492 227.189 260.916 226.382 259.766 226.382C258.652 226.382 258.096 227.189 258.096 228.804V233.73C258.096 234.157 258.077 234.482 258.04 234.705C258.021 234.909 257.938 235.15 257.789 235.428C257.511 235.911 256.787 236.152 255.618 236.152C254.449 236.152 253.735 235.902 253.475 235.4C253.345 235.122 253.262 234.881 253.225 234.677C253.206 234.473 253.197 234.148 253.197 233.703V223.905C253.197 223.478 253.206 223.162 253.225 222.958C253.262 222.736 253.354 222.494 253.503 222.235C253.781 221.733 254.44 221.483 255.479 221.483C256.518 221.483 257.196 221.65 257.511 221.984C257.827 222.318 257.984 222.801 257.984 223.431ZM276.873 240.132V223.877C276.873 223.45 276.882 223.135 276.901 222.93C276.938 222.726 277.021 222.494 277.151 222.235C277.411 221.733 278.033 221.483 279.016 221.483C280 221.483 280.658 221.613 280.992 221.873C281.345 222.114 281.549 222.476 281.605 222.958C282.31 221.993 283.414 221.511 284.917 221.511C286.439 221.511 287.877 222.225 289.232 223.654C290.586 225.083 291.263 226.744 291.263 228.637C291.263 230.529 290.586 232.19 289.232 233.619C287.895 235.048 286.467 235.762 284.945 235.762C283.423 235.762 282.319 235.336 281.633 234.482V240.105C281.633 240.531 281.614 240.847 281.577 241.051C281.558 241.255 281.475 241.487 281.326 241.747C281.196 242.025 280.965 242.22 280.63 242.331C280.296 242.443 279.842 242.498 279.267 242.498C278.691 242.498 278.227 242.443 277.875 242.331C277.541 242.22 277.3 242.035 277.151 241.775C277.021 241.515 276.938 241.283 276.901 241.079C276.882 240.875 276.873 240.559 276.873 240.132ZM282.384 227.022C281.957 227.523 281.744 228.071 281.744 228.664C281.744 229.258 281.957 229.806 282.384 230.307C282.829 230.789 283.386 231.03 284.054 231.03C284.741 231.03 285.316 230.789 285.78 230.307C286.262 229.824 286.504 229.277 286.504 228.664C286.504 228.052 286.281 227.505 285.836 227.022C285.39 226.521 284.806 226.271 284.082 226.271C283.377 226.271 282.811 226.521 282.384 227.022ZM293.074 217.029C293.074 216.603 293.083 216.287 293.101 216.083C293.139 215.86 293.222 215.61 293.352 215.331C293.612 214.83 294.335 214.58 295.523 214.58C296.655 214.58 297.36 214.83 297.639 215.331C297.787 215.61 297.871 215.86 297.889 216.083C297.926 216.306 297.945 216.63 297.945 217.057V229.945C297.945 230.613 298 231.04 298.112 231.225C298.223 231.392 298.464 231.476 298.835 231.476C299.225 231.476 299.485 231.494 299.615 231.531C299.745 231.55 299.902 231.624 300.088 231.754C300.459 231.995 300.645 232.654 300.645 233.73C300.645 234.899 300.459 235.614 300.088 235.874C299.606 236.208 298.455 236.263 296.636 236.041C295.208 235.855 294.28 235.382 293.853 234.621C293.333 233.712 293.074 232.264 293.074 230.279V217.029ZM316.048 227.078C316.048 228.21 315.761 229.054 315.185 229.611C314.629 230.149 314.007 230.418 313.32 230.418H306.723C306.723 230.938 307.03 231.374 307.642 231.726C308.254 232.079 308.867 232.255 309.479 232.255C310.555 232.255 311.4 232.144 312.012 231.921L312.318 231.81C312.764 231.606 313.135 231.504 313.432 231.504C314.025 231.504 314.536 231.921 314.963 232.756C315.204 233.257 315.324 233.684 315.324 234.037C315.324 235.688 313.348 236.514 309.396 236.514C308.022 236.514 306.798 236.282 305.721 235.818C304.664 235.336 303.838 234.705 303.244 233.925C302.075 232.422 301.49 230.743 301.49 228.887C301.49 226.549 302.242 224.684 303.745 223.292C305.267 221.882 307.16 221.177 309.423 221.177C312.003 221.177 313.896 222.086 315.102 223.905C315.733 224.87 316.048 225.927 316.048 227.078ZM310.175 227.885C310.88 227.885 311.233 227.588 311.233 226.994C311.233 226.568 311.066 226.224 310.732 225.964C310.416 225.705 309.952 225.575 309.34 225.575C308.746 225.575 308.152 225.825 307.558 226.326C306.965 226.809 306.668 227.328 306.668 227.885H310.175ZM326.11 226.41L324.301 226.298V230.14C324.301 230.641 324.375 231.003 324.523 231.225C324.69 231.448 324.987 231.559 325.414 231.559C325.859 231.559 326.193 231.578 326.416 231.615C326.657 231.633 326.908 231.717 327.168 231.865C327.594 232.107 327.808 232.728 327.808 233.73C327.808 234.899 327.548 235.614 327.028 235.874C326.75 236.004 326.5 236.087 326.277 236.124C326.073 236.143 325.767 236.152 325.358 236.152C323.428 236.152 321.962 235.716 320.96 234.844C319.958 233.972 319.457 232.496 319.457 230.418V226.298C319.105 226.354 318.724 226.382 318.316 226.382C317.908 226.382 317.565 226.224 317.286 225.909C317.026 225.593 316.896 225.055 316.896 224.294C316.896 223.533 316.943 222.986 317.036 222.652C317.128 222.299 317.258 222.049 317.425 221.901C317.722 221.659 318.093 221.539 318.539 221.539L319.457 221.65V218.783C319.457 218.356 319.467 218.041 319.485 217.837C319.522 217.632 319.615 217.41 319.763 217.169C320.005 216.705 320.719 216.473 321.907 216.473C323.169 216.473 323.92 216.816 324.161 217.503C324.254 217.799 324.301 218.273 324.301 218.922V221.65C325.117 221.576 325.729 221.539 326.138 221.539C326.565 221.539 326.88 221.557 327.084 221.594C327.307 221.613 327.557 221.696 327.836 221.845C328.318 222.086 328.559 222.801 328.559 223.988C328.559 225.157 328.309 225.872 327.808 226.131C327.529 226.261 327.279 226.345 327.056 226.382C326.852 226.4 326.537 226.41 326.11 226.41ZM329.679 228.831C329.679 226.605 330.458 224.768 332.017 223.32C333.576 221.873 335.357 221.149 337.361 221.149C339.365 221.149 341.138 221.873 342.678 223.32C344.218 224.749 344.988 226.577 344.988 228.804C344.988 230.344 344.589 231.717 343.791 232.923C342.993 234.111 342.019 234.992 340.869 235.568C339.737 236.124 338.558 236.403 337.333 236.403C336.109 236.403 334.921 236.106 333.771 235.512C332.62 234.899 331.646 234.009 330.848 232.84C330.069 231.652 329.679 230.316 329.679 228.831ZM335.496 230.836C336.09 231.281 336.693 231.504 337.306 231.504C337.918 231.504 338.53 231.272 339.143 230.808C339.755 230.344 340.061 229.657 340.061 228.748C340.061 227.839 339.774 227.161 339.198 226.716C338.623 226.271 338.002 226.048 337.333 226.048C336.665 226.048 336.044 226.28 335.469 226.744C334.893 227.208 334.606 227.894 334.606 228.804C334.606 229.694 334.903 230.372 335.496 230.836ZM363.653 215.387C363.801 215.109 364.052 214.914 364.404 214.803C364.757 214.691 365.221 214.636 365.796 214.636C366.39 214.636 366.863 214.691 367.215 214.803C367.568 214.914 367.809 215.109 367.939 215.387C368.088 215.665 368.171 215.916 368.19 216.139C368.227 216.343 368.245 216.658 368.245 217.085V233.703C368.245 234.129 368.227 234.454 368.19 234.677C368.171 234.881 368.088 235.113 367.939 235.373C367.661 235.874 366.872 236.124 365.573 236.124C364.293 236.124 363.578 235.67 363.43 234.76C362.651 235.651 361.565 236.096 360.173 236.096C358.503 236.096 356.981 235.373 355.608 233.925C354.235 232.459 353.548 230.761 353.548 228.831C353.548 226.883 354.235 225.176 355.608 223.71C357 222.244 358.522 221.511 360.173 221.511C361.546 221.511 362.613 221.975 363.374 222.903V217.057C363.374 216.63 363.384 216.315 363.402 216.111C363.439 215.888 363.523 215.647 363.653 215.387ZM359.143 230.502C359.626 231.003 360.21 231.253 360.897 231.253C361.584 231.253 362.149 231.003 362.595 230.502C363.059 230 363.291 229.453 363.291 228.859C363.291 228.247 363.068 227.681 362.623 227.161C362.196 226.642 361.611 226.382 360.869 226.382C360.127 226.382 359.533 226.642 359.088 227.161C358.642 227.662 358.42 228.219 358.42 228.831C358.42 229.444 358.661 230 359.143 230.502ZM384.603 227.078C384.603 228.21 384.315 229.054 383.74 229.611C383.183 230.149 382.562 230.418 381.875 230.418H375.278C375.278 230.938 375.584 231.374 376.197 231.726C376.809 232.079 377.421 232.255 378.034 232.255C379.11 232.255 379.954 232.144 380.567 231.921L380.873 231.81C381.318 231.606 381.689 231.504 381.986 231.504C382.58 231.504 383.09 231.921 383.517 232.756C383.758 233.257 383.879 233.684 383.879 234.037C383.879 235.688 381.903 236.514 377.95 236.514C376.577 236.514 375.352 236.282 374.276 235.818C373.218 235.336 372.392 234.705 371.799 233.925C370.63 232.422 370.045 230.743 370.045 228.887C370.045 226.549 370.797 224.684 372.3 223.292C373.821 221.882 375.714 221.177 377.978 221.177C380.557 221.177 382.45 222.086 383.656 223.905C384.287 224.87 384.603 225.927 384.603 227.078ZM378.73 227.885C379.435 227.885 379.787 227.588 379.787 226.994C379.787 226.568 379.62 226.224 379.286 225.964C378.971 225.705 378.507 225.575 377.895 225.575C377.301 225.575 376.707 225.825 376.113 226.326C375.519 226.809 375.222 227.328 375.222 227.885H378.73ZM405.233 217.196L412.749 232.728C413.064 233.359 413.222 233.832 413.222 234.148C413.222 234.816 412.684 235.419 411.608 235.957C410.977 236.273 410.476 236.43 410.104 236.43C409.752 236.43 409.455 236.347 409.214 236.18C408.991 236.013 408.824 235.837 408.713 235.651C408.62 235.465 408.481 235.187 408.295 234.816L406.848 231.81H399.137L397.69 234.816C397.504 235.187 397.356 235.456 397.245 235.623C397.152 235.79 396.985 235.966 396.744 236.152C396.521 236.319 396.224 236.403 395.853 236.403C395.5 236.403 395.009 236.245 394.378 235.929C393.301 235.41 392.763 234.816 392.763 234.148C392.763 233.832 392.921 233.359 393.236 232.728L400.752 217.169C400.956 216.742 401.262 216.398 401.67 216.139C402.097 215.879 402.543 215.749 403.007 215.749C404.009 215.749 404.751 216.231 405.233 217.196ZM402.979 223.877L401.142 227.69H404.844L402.979 223.877ZM414.199 217.029C414.199 216.603 414.209 216.287 414.227 216.083C414.264 215.86 414.348 215.61 414.478 215.331C414.738 214.83 415.461 214.58 416.649 214.58C417.781 214.58 418.486 214.83 418.764 215.331C418.913 215.61 418.996 215.86 419.015 216.083C419.052 216.306 419.071 216.63 419.071 217.057V229.945C419.071 230.613 419.126 231.04 419.238 231.225C419.349 231.392 419.59 231.476 419.961 231.476C420.351 231.476 420.611 231.494 420.741 231.531C420.871 231.55 421.028 231.624 421.214 231.754C421.585 231.995 421.771 232.654 421.771 233.73C421.771 234.899 421.585 235.614 421.214 235.874C420.731 236.208 419.581 236.263 417.762 236.041C416.333 235.855 415.406 235.382 414.979 234.621C414.459 233.712 414.199 232.264 414.199 230.279V217.029ZM431.036 221.511C432.317 221.511 433.068 221.863 433.291 222.569C433.402 222.921 433.458 223.385 433.458 223.96C433.458 224.536 433.393 224.999 433.263 225.352C433.152 225.686 432.966 225.927 432.706 226.076C432.317 226.298 431.751 226.41 431.008 226.41L429.227 226.298V233.758C429.227 234.463 429.134 234.992 428.949 235.345C428.782 235.679 428.512 235.902 428.141 236.013C427.789 236.124 427.325 236.18 426.75 236.18C426.174 236.18 425.71 236.124 425.358 236.013C425.024 235.883 424.783 235.688 424.634 235.428C424.486 235.15 424.393 234.899 424.356 234.677C424.337 234.454 424.328 234.129 424.328 233.703V226.326H423.326C422.843 226.289 422.5 226.178 422.296 225.992C421.943 225.64 421.767 224.962 421.767 223.96C421.767 222.439 422.315 221.678 423.409 221.678H424.328V220.203C424.328 218.774 424.838 217.484 425.859 216.333C426.879 215.164 428.355 214.58 430.285 214.58C430.711 214.58 431.027 214.598 431.231 214.636C431.454 214.654 431.704 214.738 431.983 214.886C432.484 215.127 432.734 215.842 432.734 217.029C432.734 217.92 432.576 218.56 432.261 218.95C432.001 219.247 431.593 219.414 431.036 219.451C430.869 219.451 430.609 219.451 430.257 219.451C429.57 219.451 429.227 219.683 429.227 220.147V221.678L431.036 221.511ZM443.97 223.042C444.081 222.003 444.814 221.483 446.169 221.483C446.893 221.483 447.431 221.539 447.784 221.65C448.136 221.761 448.377 221.956 448.507 222.235C448.656 222.513 448.739 222.763 448.758 222.986C448.795 223.19 448.813 223.506 448.813 223.932V233.675C448.813 234.102 448.795 234.426 448.758 234.649C448.739 234.853 448.665 235.094 448.535 235.373C448.275 235.855 447.635 236.096 446.614 236.096C445.612 236.096 444.935 235.976 444.583 235.735C444.248 235.475 444.054 235.104 443.998 234.621C443.311 235.605 442.161 236.096 440.546 236.096C438.951 236.096 437.466 235.363 436.093 233.897C434.72 232.431 434.033 230.733 434.033 228.804C434.033 226.855 434.72 225.157 436.093 223.71C437.485 222.244 439.006 221.511 440.658 221.511C441.289 221.511 441.864 221.622 442.384 221.845C442.903 222.068 443.265 222.281 443.469 222.485C443.673 222.671 443.84 222.856 443.97 223.042ZM438.904 228.831C438.904 229.444 439.145 230 439.628 230.502C440.11 230.984 440.695 231.225 441.381 231.225C442.068 231.225 442.634 230.975 443.079 230.474C443.543 229.973 443.775 229.425 443.775 228.831C443.775 228.219 443.553 227.653 443.107 227.133C442.68 226.614 442.096 226.354 441.354 226.354C440.63 226.354 440.036 226.614 439.572 227.133C439.127 227.653 438.904 228.219 438.904 228.831ZM459.076 221.511C460.728 221.511 462.24 222.244 463.613 223.71C465.005 225.176 465.701 226.883 465.701 228.831C465.701 230.761 465.014 232.459 463.641 233.925C462.268 235.373 460.793 236.096 459.215 236.096C457.638 236.096 456.515 235.651 455.847 234.76C455.699 235.67 454.901 236.124 453.454 236.124C452.285 236.124 451.57 235.874 451.31 235.373C451.18 235.094 451.097 234.853 451.06 234.649C451.041 234.426 451.032 234.102 451.032 233.675V217.057C451.032 216.63 451.041 216.315 451.06 216.111C451.097 215.888 451.18 215.647 451.31 215.387C451.57 214.886 452.294 214.636 453.481 214.636C454.651 214.636 455.356 214.886 455.597 215.387C455.745 215.665 455.829 215.916 455.847 216.139C455.885 216.343 455.903 216.658 455.903 217.085V222.875C456.645 221.965 457.703 221.511 459.076 221.511ZM456.627 230.502C457.091 231.003 457.666 231.253 458.353 231.253C459.039 231.253 459.624 231.003 460.106 230.502C460.589 230 460.83 229.444 460.83 228.831C460.83 228.219 460.607 227.662 460.162 227.161C459.716 226.642 459.123 226.382 458.38 226.382C457.638 226.382 457.044 226.642 456.599 227.161C456.172 227.681 455.959 228.247 455.959 228.859C455.959 229.453 456.181 230 456.627 230.502ZM481.645 227.078C481.645 228.21 481.357 229.054 480.782 229.611C480.225 230.149 479.604 230.418 478.917 230.418H472.32C472.32 230.938 472.626 231.374 473.239 231.726C473.851 232.079 474.463 232.255 475.076 232.255C476.152 232.255 476.996 232.144 477.609 231.921L477.915 231.81C478.36 231.606 478.731 231.504 479.028 231.504C479.622 231.504 480.132 231.921 480.559 232.756C480.801 233.257 480.921 233.684 480.921 234.037C480.921 235.688 478.945 236.514 474.992 236.514C473.619 236.514 472.394 236.282 471.318 235.818C470.26 235.336 469.435 234.705 468.841 233.925C467.672 232.422 467.087 230.743 467.087 228.887C467.087 226.549 467.839 224.684 469.342 223.292C470.863 221.882 472.756 221.177 475.02 221.177C477.599 221.177 479.492 222.086 480.698 223.905C481.329 224.87 481.645 225.927 481.645 227.078ZM475.772 227.885C476.477 227.885 476.829 227.588 476.829 226.994C476.829 226.568 476.662 226.224 476.328 225.964C476.013 225.705 475.549 225.575 474.937 225.575C474.343 225.575 473.749 225.825 473.155 226.326C472.561 226.809 472.264 227.328 472.264 227.885H475.772ZM491.707 226.41L489.897 226.298V230.14C489.897 230.641 489.971 231.003 490.12 231.225C490.287 231.448 490.584 231.559 491.011 231.559C491.456 231.559 491.79 231.578 492.013 231.615C492.254 231.633 492.504 231.717 492.764 231.865C493.191 232.107 493.404 232.728 493.404 233.73C493.404 234.899 493.145 235.614 492.625 235.874C492.347 236.004 492.096 236.087 491.874 236.124C491.669 236.143 491.363 236.152 490.955 236.152C489.025 236.152 487.559 235.716 486.557 234.844C485.555 233.972 485.054 232.496 485.054 230.418V226.298C484.701 226.354 484.321 226.382 483.913 226.382C483.504 226.382 483.161 226.224 482.883 225.909C482.623 225.593 482.493 225.055 482.493 224.294C482.493 223.533 482.54 222.986 482.632 222.652C482.725 222.299 482.855 222.049 483.022 221.901C483.319 221.659 483.69 221.539 484.135 221.539L485.054 221.65V218.783C485.054 218.356 485.063 218.041 485.082 217.837C485.119 217.632 485.212 217.41 485.36 217.169C485.601 216.705 486.316 216.473 487.503 216.473C488.765 216.473 489.517 216.816 489.758 217.503C489.851 217.799 489.897 218.273 489.897 218.922V221.65C490.714 221.576 491.326 221.539 491.734 221.539C492.161 221.539 492.477 221.557 492.681 221.594C492.903 221.613 493.154 221.696 493.432 221.845C493.915 222.086 494.156 222.801 494.156 223.988C494.156 225.157 493.906 225.872 493.404 226.131C493.126 226.261 492.876 226.345 492.653 226.382C492.449 226.4 492.133 226.41 491.707 226.41ZM495.693 223.932C495.693 223.506 495.702 223.19 495.721 222.986C495.758 222.763 495.842 222.513 495.971 222.235C496.231 221.752 496.955 221.511 498.143 221.511C499.033 221.511 499.664 221.669 500.035 221.984C500.351 222.244 500.518 222.643 500.536 223.181C500.555 223.366 500.564 223.636 500.564 223.988V233.73C500.564 234.157 500.546 234.482 500.509 234.705C500.49 234.909 500.406 235.15 500.258 235.428C500.017 235.911 499.302 236.152 498.115 236.152C496.946 236.152 496.231 235.902 495.971 235.4C495.842 235.122 495.758 234.881 495.721 234.677C495.702 234.473 495.693 234.148 495.693 233.703V223.932ZM500.258 218.783C500.128 219.043 499.887 219.228 499.534 219.34C499.182 219.451 498.709 219.507 498.115 219.507C497.539 219.507 497.076 219.451 496.723 219.34C496.37 219.228 496.12 219.033 495.971 218.755C495.842 218.477 495.758 218.236 495.721 218.031C495.702 217.809 495.693 217.484 495.693 217.057C495.693 216.63 495.702 216.315 495.721 216.111C495.758 215.888 495.842 215.647 495.971 215.387C496.231 214.886 496.955 214.636 498.143 214.636C499.312 214.636 500.017 214.886 500.258 215.387C500.406 215.665 500.49 215.916 500.509 216.139C500.546 216.343 500.564 216.658 500.564 217.085C500.564 217.512 500.546 217.837 500.509 218.059C500.49 218.263 500.406 218.505 500.258 218.783ZM510.108 231.253H514.868C515.61 231.253 516.139 231.346 516.455 231.531C516.789 231.717 517.011 231.986 517.123 232.339C517.234 232.691 517.29 233.155 517.29 233.73C517.29 234.306 517.234 234.77 517.123 235.122C517.011 235.475 516.817 235.725 516.538 235.874C516.26 236.004 516.009 236.087 515.787 236.124C515.583 236.143 515.267 236.152 514.84 236.152H504.792C504.142 236.152 503.576 235.911 503.094 235.428C502.611 234.946 502.37 234.371 502.37 233.703C502.37 233.035 502.611 232.469 503.094 232.005C503.576 231.522 504.319 230.836 505.321 229.945C506.323 229.054 507.232 228.256 508.049 227.551C508.865 226.827 509.31 226.428 509.385 226.354H505.46C504.402 226.354 503.734 226.178 503.456 225.825C503.14 225.417 502.983 224.879 502.983 224.211C502.983 223.543 503.029 223.051 503.122 222.736C503.215 222.402 503.326 222.16 503.456 222.012C503.586 221.845 503.771 221.715 504.012 221.622C504.328 221.529 504.81 221.483 505.46 221.483H514.506C515.156 221.483 515.722 221.715 516.204 222.179C516.687 222.643 516.928 223.227 516.928 223.932C516.928 224.619 516.65 225.231 516.093 225.77C515.536 226.308 513.541 228.136 510.108 231.253ZM528.617 223.042C528.728 222.003 529.461 221.483 530.816 221.483C531.54 221.483 532.078 221.539 532.43 221.65C532.783 221.761 533.024 221.956 533.154 222.235C533.302 222.513 533.386 222.763 533.404 222.986C533.442 223.19 533.46 223.506 533.46 223.932V233.675C533.46 234.102 533.442 234.426 533.404 234.649C533.386 234.853 533.312 235.094 533.182 235.373C532.922 235.855 532.282 236.096 531.261 236.096C530.259 236.096 529.582 235.976 529.229 235.735C528.895 235.475 528.7 235.104 528.645 234.621C527.958 235.605 526.808 236.096 525.193 236.096C523.597 236.096 522.113 235.363 520.74 233.897C519.366 232.431 518.68 230.733 518.68 228.804C518.68 226.855 519.366 225.157 520.74 223.71C522.131 222.244 523.653 221.511 525.304 221.511C525.935 221.511 526.511 221.622 527.03 221.845C527.55 222.068 527.912 222.281 528.116 222.485C528.32 222.671 528.487 222.856 528.617 223.042ZM523.551 228.831C523.551 229.444 523.792 230 524.275 230.502C524.757 230.984 525.342 231.225 526.028 231.225C526.715 231.225 527.281 230.975 527.726 230.474C528.19 229.973 528.422 229.425 528.422 228.831C528.422 228.219 528.199 227.653 527.754 227.133C527.327 226.614 526.743 226.354 526 226.354C525.277 226.354 524.683 226.614 524.219 227.133C523.774 227.653 523.551 228.219 523.551 228.831ZM540.16 236.737C540.216 236.421 540.364 236.171 540.606 235.985C539.102 235.503 537.831 234.64 536.792 233.396C535.771 232.135 535.261 230.576 535.261 228.72C535.261 227.532 535.502 226.447 535.985 225.463C536.467 224.461 537.089 223.663 537.85 223.07C539.464 221.808 541.144 221.177 542.888 221.177C543.612 221.177 544.308 221.27 544.976 221.455C545.644 221.641 546.135 221.826 546.451 222.012L546.924 222.318C547.277 222.541 547.536 222.717 547.703 222.847C548.204 223.237 548.455 223.663 548.455 224.127C548.455 224.591 548.251 225.148 547.843 225.797C547.175 226.818 546.525 227.328 545.894 227.328C545.542 227.328 545.041 227.124 544.391 226.716C544.038 226.401 543.547 226.243 542.916 226.243C542.285 226.243 541.7 226.465 541.162 226.911C540.624 227.338 540.355 227.959 540.355 228.776C540.355 229.574 540.615 230.195 541.134 230.641C541.673 231.086 542.238 231.309 542.832 231.309C543.426 231.309 543.974 231.142 544.475 230.808C544.994 230.455 545.412 230.279 545.727 230.279C546.284 230.279 546.98 230.78 547.815 231.782C548.242 232.32 548.455 232.812 548.455 233.257C548.455 233.944 547.945 234.612 546.924 235.261C546.33 235.67 545.56 235.976 544.614 236.18C545.263 236.755 545.588 237.507 545.588 238.435C545.588 239.381 545.254 240.123 544.586 240.661C543.936 241.218 543.231 241.496 542.47 241.496C541.969 241.496 541.589 241.422 541.329 241.274C540.606 240.903 540.225 240.541 540.188 240.188L540.16 240.049C540.16 239.826 540.299 239.539 540.578 239.186C540.875 238.852 541.125 238.685 541.329 238.685C541.533 238.685 541.7 238.722 541.83 238.796C541.96 238.889 542.062 238.945 542.136 238.963C542.211 239.038 542.322 239.075 542.47 239.075C542.637 239.075 542.786 239.019 542.916 238.908C543.064 238.796 543.138 238.629 543.138 238.407C543.138 238.203 543.064 238.045 542.916 237.933C542.786 237.822 542.637 237.766 542.47 237.766C542.322 237.766 542.201 237.813 542.109 237.906C541.812 238.091 541.533 238.184 541.274 238.184C541.032 238.184 540.782 237.989 540.522 237.599C540.281 237.21 540.16 236.922 540.16 236.737ZM559.795 223.042C559.907 222.003 560.64 221.483 561.994 221.483C562.718 221.483 563.256 221.539 563.609 221.65C563.961 221.761 564.203 221.956 564.332 222.235C564.481 222.513 564.564 222.763 564.583 222.986C564.62 223.19 564.639 223.506 564.639 223.932V233.675C564.639 234.102 564.62 234.426 564.583 234.649C564.564 234.853 564.49 235.094 564.36 235.373C564.101 235.855 563.46 236.096 562.44 236.096C561.438 236.096 560.76 235.976 560.408 235.735C560.074 235.475 559.879 235.104 559.823 234.621C559.137 235.605 557.986 236.096 556.372 236.096C554.776 236.096 553.291 235.363 551.918 233.897C550.545 232.431 549.858 230.733 549.858 228.804C549.858 226.855 550.545 225.157 551.918 223.71C553.31 222.244 554.831 221.511 556.483 221.511C557.114 221.511 557.689 221.622 558.209 221.845C558.728 222.068 559.09 222.281 559.294 222.485C559.498 222.671 559.665 222.856 559.795 223.042ZM554.729 228.831C554.729 229.444 554.971 230 555.453 230.502C555.936 230.984 556.52 231.225 557.207 231.225C557.893 231.225 558.459 230.975 558.905 230.474C559.369 229.973 559.601 229.425 559.601 228.831C559.601 228.219 559.378 227.653 558.932 227.133C558.506 226.614 557.921 226.354 557.179 226.354C556.455 226.354 555.861 226.614 555.397 227.133C554.952 227.653 554.729 228.219 554.729 228.831ZM562.774 215.053C563.442 215.517 563.776 215.962 563.776 216.389C563.776 216.649 563.702 216.899 563.553 217.141C563.405 217.382 563.303 217.558 563.247 217.67C563.191 217.762 563.061 217.939 562.857 218.198C562.653 218.458 562.421 218.69 562.161 218.894C561.456 219.414 560.742 219.674 560.018 219.674C559.294 219.674 558.719 219.553 558.292 219.312C557.884 219.071 557.541 218.829 557.262 218.588C557.003 218.347 556.789 218.226 556.622 218.226C556.362 218.226 556.121 218.338 555.898 218.56C555.472 219.303 555.073 219.674 554.702 219.674C554.349 219.674 553.913 219.451 553.393 219.006C552.892 218.56 552.642 218.198 552.642 217.92C552.642 217.623 552.716 217.354 552.864 217.113C553.013 216.872 553.115 216.705 553.171 216.612C553.226 216.501 553.356 216.324 553.56 216.083C553.783 215.823 554.024 215.591 554.284 215.387C554.971 214.886 555.778 214.636 556.706 214.636C557.559 214.636 558.376 214.979 559.155 215.665C559.415 215.907 559.628 216.027 559.795 216.027C560.129 216.027 560.371 215.916 560.519 215.693C560.909 214.988 561.326 214.636 561.772 214.636C562.05 214.636 562.384 214.775 562.774 215.053ZM566.44 228.831C566.44 226.605 567.219 224.768 568.778 223.32C570.337 221.873 572.118 221.149 574.122 221.149C576.126 221.149 577.898 221.873 579.439 223.32C580.979 224.749 581.749 226.577 581.749 228.804C581.749 230.344 581.35 231.717 580.552 232.923C579.754 234.111 578.78 234.992 577.629 235.568C576.497 236.124 575.319 236.403 574.094 236.403C572.87 236.403 571.682 236.106 570.531 235.512C569.381 234.899 568.407 234.009 567.609 232.84C566.829 231.652 566.44 230.316 566.44 228.831ZM572.257 230.836C572.851 231.281 573.454 231.504 574.066 231.504C574.679 231.504 575.291 231.272 575.904 230.808C576.516 230.344 576.822 229.657 576.822 228.748C576.822 227.839 576.535 227.161 575.959 226.716C575.384 226.271 574.762 226.048 574.094 226.048C573.426 226.048 572.805 226.28 572.229 226.744C571.654 227.208 571.366 227.894 571.366 228.804C571.366 229.694 571.663 230.372 572.257 230.836Z" fill="#0097B2"/>
</g>
<defs>
<filter id="filter0_d_10_1128" x="197.333" y="805.538" width="347.197" height="181.433" filterUnits="userSpaceOnUse" color-interpolation-filters="sRGB">
<feFlood flood-opacity="0" result="BackgroundImageFix"/>
<feColorMatrix in="SourceAlpha" type="matrix" values="0 0 0 0 0 0 0 0 0 0 0 0 0 0 0 0 0 0 127 0" result="hardAlpha"/>
<feOffset dy="4"/>
<feGaussianBlur stdDeviation="11.7"/>
<feComposite in2="hardAlpha" operator="out"/>
<feColorMatrix type="matrix" values="0 0 0 0 0 0 0 0 0 0 0 0 0 0 0 0 0 0 0.25 0"/>
<feBlend mode="normal" in2="BackgroundImageFix" result="effect1_dropShadow_10_1128"/>
<feBlend mode="normal" in="SourceGraphic" in2="effect1_dropShadow_10_1128" result="shape"/>
</filter>
<filter id="filter1_d_10_1128" x="257.713" y="948.568" width="225.254" height="89.0686" filterUnits="userSpaceOnUse" color-interpolation-filters="sRGB">
<feFlood flood-opacity="0" result="BackgroundImageFix"/>
<feColorMatrix in="SourceAlpha" type="matrix" values="0 0 0 0 0 0 0 0 0 0 0 0 0 0 0 0 0 0 127 0" result="hardAlpha"/>
<feOffset dy="4"/>
<feGaussianBlur stdDeviation="3.85"/>
<feComposite in2="hardAlpha" operator="out"/>
<feColorMatrix type="matrix" values="0 0 0 0 0 0 0 0 0 0 0 0 0 0 0 0 0 0 0.25 0"/>
<feBlend mode="normal" in2="BackgroundImageFix" result="effect1_dropShadow_10_1128"/>
<feBlend mode="normal" in="SourceGraphic" in2="effect1_dropShadow_10_1128" result="shape"/>
</filter>
<filter id="filter2_d_10_1128" x="257.056" y="1022" width="225.956" height="54.8446" filterUnits="userSpaceOnUse" color-interpolation-filters="sRGB">
<feFlood flood-opacity="0" result="BackgroundImageFix"/>
<feColorMatrix in="SourceAlpha" type="matrix" values="0 0 0 0 0 0 0 0 0 0 0 0 0 0 0 0 0 0 127 0" result="hardAlpha"/>
<feOffset dy="4"/>
<feGaussianBlur stdDeviation="3.85"/>
<feComposite in2="hardAlpha" operator="out"/>
<feColorMatrix type="matrix" values="0 0 0 0 0 0 0 0 0 0 0 0 0 0 0 0 0 0 0.25 0"/>
<feBlend mode="normal" in2="BackgroundImageFix" result="effect1_dropShadow_10_1128"/>
<feBlend mode="normal" in="SourceGraphic" in2="effect1_dropShadow_10_1128" result="shape"/>
</filter>
<linearGradient id="paint0_linear_10_1128" x1="378.723" y1="814.766" x2="360.1" y2="857.891" gradientUnits="userSpaceOnUse">
<stop stop-color="#DE7F60"/>
<stop offset="1" stop-color="#EE9E76"/>
</linearGradient>
<clipPath id="clip0_10_1128">
<rect width="755.583" height="1069.54" fill="white"/>
</clipPath>
</defs>
</svg>
