<svg width="1834" height="403" viewBox="0 0 1834 403" fill="none" xmlns="http://www.w3.org/2000/svg">
<g clip-path="url(#clip0_10_1616)">
<path d="M0.63623 371.547V34.5068C0.63623 26.3791 4.16231 20.1142 11.2366 15.7011C18.3331 11.2658 26.8268 9.0481 36.7397 9.0481H220.894C229.022 9.0481 235.198 12.5853 239.434 19.6485C243.692 26.7228 245.821 35.0391 245.821 44.6193C245.821 54.8871 243.603 63.5471 239.168 70.6103C234.754 77.6846 228.667 81.2107 220.894 81.2107H83.4436V170.893H163.59C171.363 170.893 177.45 174.086 181.863 180.473C186.299 186.838 188.516 194.433 188.516 203.271C188.516 211.432 186.387 218.694 182.129 225.048C177.894 231.413 171.718 234.584 163.59 234.584H83.4436V371.547C83.4436 379.685 79.3631 385.961 71.2021 390.397C63.0633 394.81 53.3389 397.005 42.0177 397.005C30.7188 397.005 20.9943 394.81 12.8334 390.397C4.69455 385.961 0.63623 379.685 0.63623 371.547Z" fill="#8B3F90"/>
<path d="M241.587 331.718C241.587 302.356 252.288 281.665 273.699 269.623C295.1 257.593 325.792 251.572 365.776 251.572H384.892V246.294C384.892 235.682 381.699 226.49 375.312 218.706C368.948 210.9 358.879 206.997 345.108 206.997C328.098 206.997 314.116 209.924 303.15 215.779C292.172 221.611 285.464 224.516 283.013 224.516C274.52 224.516 267.8 220.369 262.833 212.053C257.887 203.748 255.426 194.29 255.426 183.667C255.426 171.991 265.239 162 284.876 153.684C304.502 145.346 324.938 141.177 346.172 141.177C386.855 141.177 417.193 151.101 437.185 170.938C457.166 190.752 467.168 215.513 467.168 245.229V371.547C467.168 378.621 463.353 384.631 455.724 389.599C448.118 394.544 438.493 397.006 426.851 397.006C416.583 397.006 407.912 394.544 400.815 389.599C393.741 384.631 390.215 378.621 390.215 371.547V359.838C365.787 388.168 338.898 402.328 309.536 402.328C290.077 402.328 273.888 396.318 260.97 384.276C248.041 372.246 241.587 354.726 241.587 331.718ZM324.395 320.053C324.395 334.933 331.292 342.363 345.108 342.363C353.945 342.363 362.782 337.417 371.631 327.504C380.468 317.569 384.892 306.248 384.892 293.53V291.401H382.764C371.076 291.401 361.441 291.933 353.845 292.998C346.239 294.062 339.43 296.812 333.398 301.247C327.389 305.66 324.395 311.925 324.395 320.053Z" fill="#F87828"/>
<path d="M504.32 371.546V24.9708C504.32 17.5528 508.113 11.5318 515.719 6.91909C523.348 2.30636 533.172 0 545.214 0C556.857 0 566.659 2.30636 574.62 6.91909C582.604 11.5318 586.595 17.5528 586.595 24.9708V371.546C586.595 377.911 582.515 383.744 574.354 389.066C566.215 394.366 556.502 397.005 545.214 397.005C533.527 397.005 523.791 394.455 515.985 389.332C508.201 384.187 504.32 378.266 504.32 371.546Z" fill="#E84A8C"/>
<path d="M611.532 331.718C611.532 302.356 622.232 281.665 643.644 269.623C665.044 257.593 695.737 251.572 735.721 251.572H754.837V246.294C754.837 235.682 751.644 226.49 745.257 218.706C738.892 210.9 728.824 206.997 715.053 206.997C698.043 206.997 684.061 209.924 673.094 215.779C662.117 221.611 655.409 224.516 652.958 224.516C644.464 224.516 637.745 220.369 632.777 212.053C627.832 203.748 625.37 194.29 625.37 183.667C625.37 171.991 635.184 162 654.821 153.684C674.447 145.346 694.883 141.177 716.117 141.177C756.8 141.177 787.138 151.101 807.13 170.938C827.111 190.752 837.112 215.513 837.112 245.229V371.547C837.112 378.621 833.298 384.631 825.669 389.599C818.063 394.544 808.438 397.006 796.795 397.006C786.528 397.006 777.857 394.544 770.76 389.599C763.686 384.631 760.16 378.621 760.16 371.547V359.838C735.732 388.168 708.843 402.328 679.481 402.328C660.021 402.328 643.832 396.318 630.915 384.276C617.986 372.246 611.532 354.726 611.532 331.718ZM694.34 320.053C694.34 334.933 701.237 342.363 715.053 342.363C723.89 342.363 732.727 337.417 741.576 327.504C750.413 317.569 754.837 306.248 754.837 293.53V291.401H752.708C741.021 291.401 731.386 291.933 723.79 292.998C716.184 294.062 709.375 296.812 703.343 301.247C697.333 305.66 694.34 311.925 694.34 320.053Z" fill="#0097B2"/>
<path d="M967.158 371.547V33.9746C967.158 25.8469 971.216 19.6707 979.355 15.435C987.516 11.177 997.24 9.0481 1008.54 9.0481C1019.86 9.0481 1029.58 11.177 1037.72 15.435C1045.88 19.6707 1049.97 25.8469 1049.97 33.9746V161.357L1149.23 20.713C1154.52 12.9401 1161.76 9.0481 1170.96 9.0481C1181.93 9.0481 1192.8 13.561 1203.6 22.5758C1214.39 31.6017 1219.79 41.2374 1219.79 51.4941C1219.79 57.1713 1218.02 62.4826 1214.47 67.4169L1127.45 176.747L1237.31 344.979C1240.15 349.592 1241.57 354.193 1241.57 358.773C1241.57 369.041 1236.26 378.51 1225.65 387.203C1215.03 395.874 1203.7 400.199 1191.67 400.199C1178.92 400.199 1169.37 395.076 1163.02 384.808L1072.23 246.825L1049.97 275.478V371.547C1049.97 379.685 1045.88 385.961 1037.72 390.397C1029.58 394.81 1019.86 397.005 1008.54 397.005C997.24 397.005 987.516 394.81 979.355 390.397C971.216 385.961 967.158 379.685 967.158 371.547Z" fill="#63B240"/>
<path d="M1268.66 84.1382C1260.16 76.5427 1255.93 67.6166 1255.93 57.3489C1255.93 47.0922 1260.16 38.2548 1268.66 30.8257C1277.14 23.3743 1287.4 19.6487 1299.44 19.6487C1311.12 19.6487 1321.19 23.3743 1329.69 30.8257C1338.17 38.2548 1342.42 47.0922 1342.42 57.3489C1342.42 67.6166 1338.17 76.5427 1329.69 84.1382C1321.19 91.7448 1311.12 95.537 1299.44 95.537C1287.4 95.537 1277.14 91.7448 1268.66 84.1382ZM1258.55 371.547V169.341C1258.55 161.889 1262.34 155.879 1269.94 151.289C1277.57 146.676 1287.4 144.37 1299.44 144.37C1311.12 144.37 1320.93 146.676 1328.89 151.289C1336.84 155.879 1340.82 161.889 1340.82 169.341V371.547C1340.82 377.911 1336.75 383.744 1328.62 389.066C1320.48 394.366 1310.76 397.005 1299.44 397.005C1287.75 397.005 1278.02 394.455 1270.21 389.332C1262.43 384.187 1258.55 378.266 1258.55 371.547Z" fill="#0097B2"/>
<path d="M1371.81 289.804V252.636C1371.81 222.209 1381 196.03 1399.4 174.086C1417.82 152.154 1439.94 141.176 1465.75 141.176C1480.98 141.176 1494.5 145.079 1506.33 152.885C1518.19 160.669 1527.14 170.216 1533.17 181.538V24.9708C1533.17 17.5528 1537.14 11.5318 1545.1 6.91909C1553.05 2.30636 1563.04 0 1575.08 0C1586.76 0 1596.39 2.30636 1604 6.91909C1611.6 11.5318 1615.4 17.5528 1615.4 24.9708V371.546C1615.4 378.266 1611.51 384.187 1603.73 389.332C1595.95 394.455 1586.4 397.005 1575.08 397.005C1565.17 397.005 1556.59 394.366 1549.31 389.066C1542.06 383.744 1538.45 377.911 1538.45 371.546V359.837C1532.79 371.524 1523.07 381.526 1509.26 389.864C1495.48 398.169 1480.44 402.328 1464.15 402.328C1439.73 402.328 1418.23 391.006 1399.67 368.353C1381.09 345.711 1371.81 319.52 1371.81 289.804ZM1454.09 289.804C1454.09 300.426 1457.88 309.885 1465.49 318.19C1473.08 326.506 1482.01 330.653 1492.27 330.653C1502.53 330.653 1511.9 326.417 1520.39 317.924C1528.91 309.441 1533.17 302.356 1533.17 296.678V252.636C1533.17 240.96 1529 231.413 1520.66 223.984C1512.34 216.565 1503.06 212.851 1492.81 212.851C1482.18 212.851 1473.08 216.92 1465.49 225.048C1457.88 233.187 1454.09 242.379 1454.09 252.636V289.804Z" fill="#FFB937"/>
<path d="M1629.76 353.495C1629.76 346.077 1632.4 338.216 1637.7 329.899C1643.02 321.561 1649.41 317.392 1656.86 317.392C1661.08 317.392 1666.28 319.343 1672.47 323.246C1678.68 327.127 1686.46 331.097 1695.84 335.177C1705.21 339.258 1716.09 341.298 1728.49 341.298C1750.42 341.298 1761.4 335.466 1761.4 323.779C1761.4 317.392 1757.14 312.18 1748.62 308.122C1740.13 304.041 1729.79 300.604 1717.58 297.788C1705.39 294.949 1693.19 291.246 1680.99 286.655C1668.77 282.042 1658.42 274.436 1649.94 263.813C1641.44 253.202 1637.21 239.574 1637.21 222.92C1637.21 200.277 1645.16 180.995 1661.07 165.083C1677.01 149.149 1702.3 141.177 1736.96 141.177C1760.67 141.177 1781.63 144.814 1799.85 152.088C1818.09 159.339 1827.22 168.443 1827.22 179.409C1827.22 186.483 1824.38 194.7 1818.7 204.069C1813.05 213.45 1805.98 218.129 1797.5 218.129C1793.95 218.129 1785.8 215.49 1773.06 210.19C1760.31 204.868 1748.64 202.207 1738.02 202.207C1728.11 202.207 1720.59 203.892 1715.45 207.263C1710.33 210.634 1707.78 214.614 1707.78 219.194C1707.78 224.516 1712.1 228.774 1720.77 231.968C1729.46 235.139 1739.9 238.221 1752.08 241.237C1764.29 244.253 1776.5 248.156 1788.72 252.947C1800.93 257.715 1811.36 265.842 1820.03 277.341C1828.69 288.851 1833.03 303.265 1833.03 320.585C1833.03 346.044 1824.09 366.036 1806.24 380.551C1788.38 395.076 1763.17 402.328 1730.62 402.328C1703 402.328 1679.28 397.46 1659.47 387.736C1639.66 378.011 1629.76 366.602 1629.76 353.495Z" fill="#0097B2"/>
</g>
<defs>
<clipPath id="clip0_10_1616">
<rect width="1833.03" height="402.372" fill="white"/>
</clipPath>
</defs>
</svg>
